<?xml version="1.0" encoding="UTF-8" standalone="no"?>
<!-- Created with Inkscape (http://www.inkscape.org/) -->

<svg
   xmlns:dc="http://purl.org/dc/elements/1.1/"
   xmlns:cc="http://creativecommons.org/ns#"
   xmlns:rdf="http://www.w3.org/1999/02/22-rdf-syntax-ns#"
   xmlns:svg="http://www.w3.org/2000/svg"
   xmlns="http://www.w3.org/2000/svg"
   xmlns:sodipodi="http://sodipodi.sourceforge.net/DTD/sodipodi-0.dtd"
   xmlns:inkscape="http://www.inkscape.org/namespaces/inkscape"
   version="1.1"
   id="svg2"
   xml:space="preserve"
   width="697.91071"
   height="559.52899"
   viewBox="0 0 697.91071 559.52899"
   sodipodi:docname="ternary_cartoon.svg"
   inkscape:version="0.92.5 (2060ec1f9f, 2020-04-08)"><metadata
     id="metadata8"><rdf:RDF><cc:Work
         rdf:about=""><dc:format>image/svg+xml</dc:format><dc:type
           rdf:resource="http://purl.org/dc/dcmitype/StillImage" /><dc:title></dc:title></cc:Work></rdf:RDF></metadata><defs
     id="defs6"><marker
       inkscape:isstock="true"
       style="overflow:visible;"
       id="marker6164"
       refX="0.0"
       refY="0.0"
       orient="auto"
       inkscape:stockid="Arrow1Lend"><path
         transform="scale(0.8) rotate(180) translate(12.5,0)"
         style="fill-rule:evenodd;stroke:#000000;stroke-width:1pt;stroke-opacity:1;fill:#000000;fill-opacity:1"
         d="M 0.0,0.0 L 5.0,-5.0 L -12.5,0.0 L 5.0,5.0 L 0.0,0.0 z "
         id="path6162" /></marker><marker
       inkscape:stockid="Arrow1Lend"
       orient="auto"
       refY="0.0"
       refX="0.0"
       id="Arrow1Lend"
       style="overflow:visible;"
       inkscape:isstock="true"
       inkscape:collect="always"><path
         id="path4979"
         d="M 0.0,0.0 L 5.0,-5.0 L -12.5,0.0 L 5.0,5.0 L 0.0,0.0 z "
         style="fill-rule:evenodd;stroke:#000000;stroke-width:1pt;stroke-opacity:1;fill:#000000;fill-opacity:1"
         transform="scale(0.8) rotate(180) translate(12.5,0)" /></marker><marker
       inkscape:stockid="Arrow2Lend"
       orient="auto"
       refY="0.0"
       refX="0.0"
       id="Arrow2Lend"
       style="overflow:visible;"
       inkscape:isstock="true"><path
         id="path4997"
         style="fill-rule:evenodd;stroke-width:0.625;stroke-linejoin:round;stroke:#000000;stroke-opacity:1;fill:#000000;fill-opacity:1"
         d="M 8.7185878,4.0337352 L -2.2072895,0.016013256 L 8.7185884,-4.0017078 C 6.9730900,-1.6296469 6.9831476,1.6157441 8.7185878,4.0337352 z "
         transform="scale(1.1) rotate(180) translate(1,0)" /></marker></defs><sodipodi:namedview
     pagecolor="#ffffff"
     bordercolor="#666666"
     borderopacity="1"
     objecttolerance="10"
     gridtolerance="10"
     guidetolerance="10"
     inkscape:pageopacity="0"
     inkscape:pageshadow="2"
     inkscape:window-width="3200"
     inkscape:window-height="1672"
     id="namedview4"
     showgrid="false"
     inkscape:zoom="2.3859668"
     inkscape:cx="394.52562"
     inkscape:cy="223.36872"
     inkscape:window-x="0"
     inkscape:window-y="54"
     inkscape:window-maximized="1"
     inkscape:current-layer="g10" /><g
     id="g10"
     inkscape:groupmode="layer"
     inkscape:label="ternary_cartoon"
     transform="matrix(1.3333333,0,0,1.3333333,0,1.1988225e-5)"><path
       d="M 61.18375,381.21102 164.06317,203.02318 266.93686,24.836024 369.81244,203.02321 472.69159,381.21113 Z"
       style="fill:none;stroke:#000000;stroke-width:2;stroke-linecap:butt;stroke-linejoin:round;stroke-miterlimit:4;stroke-dasharray:none;stroke-opacity:1"
       id="path16"
       inkscape:connector-curvature="0" /><path
       d="m 418.355,293.277 5.321,2.36"
       style="fill:none;stroke:#000000;stroke-width:2;stroke-linecap:butt;stroke-linejoin:miter;stroke-miterlimit:4;stroke-dasharray:none;stroke-opacity:1"
       id="path20"
       inkscape:connector-curvature="0" /><path
       d="m 336.648,220.34 c 0,0 14.407,19.344 20.907,29.488 7.425,11.586 15.207,23.113 20.625,35.762 2.359,5.508 4.398,11.293 5.074,17.246 0.434,3.824 -0.692,11.527 -0.692,11.527"
       style="fill:none;stroke:#b3b3b3;stroke-width:2;stroke-linecap:butt;stroke-linejoin:miter;stroke-miterlimit:4;stroke-dasharray:none;stroke-opacity:1"
       id="path24"
       inkscape:connector-curvature="0" /><path
       d="m 460.094,381.312 c 0,0 -18.852,-19.437 -28.832,-28.574 -8.621,-7.886 -17.567,-15.433 -26.782,-22.617 -7.097,-5.535 -21.918,-15.758 -21.918,-15.758"
       style="fill:none;stroke:#b3b3b3;stroke-width:2;stroke-linecap:butt;stroke-linejoin:miter;stroke-miterlimit:4;stroke-dasharray:none;stroke-opacity:1"
       id="path28"
       inkscape:connector-curvature="0" /><path
       d="M 400.051,254.32 336.648,220.34"
       style="fill:none;stroke:#b3b3b3;stroke-width:2;stroke-linecap:butt;stroke-linejoin:miter;stroke-miterlimit:4;stroke-dasharray:none;stroke-opacity:1"
       id="path32"
       inkscape:connector-curvature="0" /><path
       d="m 329.172,132.047 c 0,0 -36.688,-14.57 -55.285,-21.18 -15.844,-5.637 -47.926,-15.746 -47.926,-15.746"
       style="fill:none;stroke:#b3b3b3;stroke-width:2;stroke-linecap:butt;stroke-linejoin:miter;stroke-miterlimit:4;stroke-dasharray:none;stroke-opacity:1"
       id="path36"
       inkscape:connector-curvature="0" /><path
       d="m 389.746,381.258 c 0,0 -88.547,-57.84 -133.93,-84.961 -35.945,-21.481 -109.511,-61.555 -109.511,-61.555"
       style="fill:none;stroke:#b3b3b3;stroke-width:2;stroke-linecap:butt;stroke-linejoin:miter;stroke-miterlimit:4;stroke-dasharray:none;stroke-opacity:1"
       id="path40"
       inkscape:connector-curvature="0" /><path
       d="M 127.605,267.125 282.68,380.754"
       style="fill:none;stroke:#b3b3b3;stroke-width:2;stroke-linecap:butt;stroke-linejoin:miter;stroke-miterlimit:4;stroke-dasharray:none;stroke-opacity:1"
       id="path44"
       inkscape:connector-curvature="0" /><path
       d="M 150.113,381.035 94.895,321.719"
       style="fill:none;stroke:#b3b3b3;stroke-width:2;stroke-linecap:butt;stroke-linejoin:miter;stroke-miterlimit:4;stroke-dasharray:none;stroke-opacity:1"
       id="path48"
       inkscape:connector-curvature="0" /><path
       d="m 149.516,227.527 c 0,0 145.418,56.578 219.179,81.934 12.879,4.426 25.364,11.82 38.973,12.242 4.969,0.156 11.078,0.055 14.473,-3.574 2.199,-2.356 1.953,-6.313 1.679,-9.527 -0.453,-5.403 -5.465,-15.325 -5.465,-15.325"
       style="fill:none;stroke:#000000;stroke-width:2;stroke-linecap:butt;stroke-linejoin:miter;stroke-miterlimit:4;stroke-dasharray:none;stroke-opacity:1"
       id="path52"
       inkscape:connector-curvature="0" /><path
       d="m 203.41,134.59 c 0,0 57.367,34.051 85.258,52.324 18.098,11.859 35.957,24.117 53.219,37.164 12.633,9.555 24.793,19.731 36.793,30.07 9.34,8.051 18.777,16.047 27.386,24.879 4.379,4.493 12.289,14.25 12.289,14.25"
       style="fill:none;stroke:#000000;stroke-width:2;stroke-linecap:butt;stroke-linejoin:miter;stroke-miterlimit:4;stroke-dasharray:none;stroke-opacity:1"
       id="path56"
       inkscape:connector-curvature="0" /><text
       id="text60"
       style="font-variant:normal;font-weight:normal;font-size:16px;font-family:'DejaVu Sans';-inkscape-font-specification:DejaVuSans;writing-mode:lr-tb;fill:#999999;fill-opacity:1;fill-rule:nonzero;stroke:none"
       transform="rotate(19.027042)"
       x="273.26749"
       y="12.536478"><tspan
         id="tspan58"
         sodipodi:role="line"
         y="12.536478"
         x="273.26749 283.44348 293.61948 303.7955">5000</tspan></text>
<text
       id="text64"
       style="font-variant:normal;font-weight:normal;font-size:16px;font-family:'DejaVu Sans';-inkscape-font-specification:DejaVuSans;writing-mode:lr-tb;fill:#999999;fill-opacity:1;fill-rule:nonzero;stroke:none"
       transform="rotate(46.915361)"
       x="318.70547"
       y="147.26276"><tspan
         id="tspan62"
         sodipodi:role="line"
         y="147.26276"
         x="318.70547 328.88147 339.05746 349.23346">7000</tspan></text>
<text
       id="text68"
       style="font-variant:normal;font-weight:normal;font-size:16px;font-family:'DejaVu Sans';-inkscape-font-specification:DejaVuSans;writing-mode:lr-tb;fill:#999999;fill-opacity:1;fill-rule:nonzero;stroke:none"
       transform="rotate(37.593005)"
       x="336.38837"
       y="128.12093"><tspan
         id="tspan66"
         sodipodi:role="line"
         y="128.12093"
         x="336.38837 346.56439 356.74039 366.91638">6000</tspan></text>
<text
       id="text72"
       style="font-variant:normal;font-weight:normal;font-size:16px;font-family:'DejaVu Sans';-inkscape-font-specification:DejaVuSans;writing-mode:lr-tb;fill:#999999;fill-opacity:1;fill-rule:nonzero;stroke:none"
       transform="rotate(31.018994)"
       x="389.78806"
       y="119.92"><tspan
         id="tspan70"
         sodipodi:role="line"
         y="119.92"
         x="389.78806 399.96405 410.14005 420.31604">5000</tspan></text>
<text
       id="text76"
       style="font-variant:normal;font-weight:normal;font-size:16px;font-family:'DejaVu Sans';-inkscape-font-specification:DejaVuSans;writing-mode:lr-tb;fill:#999999;fill-opacity:1;fill-rule:nonzero;stroke:none"
       transform="rotate(64.134993)"
       x="397.19217"
       y="-217.7525"><tspan
         id="tspan74"
         sodipodi:role="line"
         y="-217.7525"
         x="397.19217 407.36819 417.54419 427.72018">4000</tspan></text>
<text
       id="text80"
       style="font-variant:normal;font-weight:normal;font-size:18px;font-family:'DejaVu Sans';-inkscape-font-specification:DejaVuSans;writing-mode:lr-tb;fill:#000000;fill-opacity:1;fill-rule:nonzero;stroke:none"
       transform="rotate(10.867275)"
       x="311.02893"
       y="291.69427"><tspan
         id="tspan78"
         sodipodi:role="line"
         y="291.69427"
         x="311.02893 322.44092 333.51093 340.90894 345.89493 355.77692 360.76294 371.77893 381.13892">periclase</tspan></text>
<text
       id="text84"
       style="font-variant:normal;font-weight:normal;font-size:18px;font-family:'DejaVu Sans';-inkscape-font-specification:DejaVuSans;writing-mode:lr-tb;fill:#000000;fill-opacity:1;fill-rule:nonzero;stroke:none"
       transform="rotate(21.007559)"
       x="276.76721"
       y="123.08546"><tspan
         id="tspan82"
         sodipodi:role="line"
         y="123.08546"
         x="276.76721 288.17923 295.57721 300.56323 311.97522 323.38721 340.91922 351.93521 363.32922 368.31522 375.37122">bridgmanite</tspan></text>
<text
       id="text88"
       style="font-variant:normal;font-weight:normal;font-size:18px;font-family:'DejaVu Sans';-inkscape-font-specification:DejaVuSans;writing-mode:lr-tb;fill:#000000;fill-opacity:1;fill-rule:nonzero;stroke:none"
       transform="rotate(30)"
       x="256.668"
       y="-8.0286312"><tspan
         id="tspan86"
         sodipodi:role="line"
         y="-8.0286312"
         x="256.668 268.07999 279.078 288.43799 295.49399 301.974 311.33398 318.38998 323.37601 332.73599 344.13 355.12799 365.76599 370.75198 377.80798">post-stishovite</tspan></text>
<text
       id="text92"
       style="font-style:oblique;font-variant:normal;font-size:19.99999809px;font-family:'DejaVu Sans';-inkscape-font-specification:DejaVuSans-Oblique;writing-mode:lr-tb;fill:#000000;fill-opacity:1;fill-rule:nonzero;stroke:none"
       x="54.447178"
       y="110.37847"><tspan
         id="tspan90"
         sodipodi:role="line"
         y="110.37847"
         x="54.447178">&quot;mantle&quot;</tspan></text>
<text
       id="text96"
       style="font-variant:normal;font-weight:normal;font-size:23.99999809px;font-family:'DejaVu Sans';-inkscape-font-specification:DejaVuSans;writing-mode:lr-tb;fill:#000000;fill-opacity:1;fill-rule:nonzero;stroke:none"
       x="242.49609"
       y="18.234375"><tspan
         id="tspan94"
         sodipodi:role="line"
         y="18.234375"
         x="242.49609 257.7121 264.36011">SiO</tspan></text>
<text
       id="text100"
       style="font-variant:normal;font-weight:normal;font-size:15.59999847px;font-family:'DejaVu Sans';-inkscape-font-specification:DejaVuSans;writing-mode:lr-tb;fill:#000000;fill-opacity:1;fill-rule:nonzero;stroke:none"
       x="283.28906"
       y="23.034374"><tspan
         id="tspan98"
         y="23.034374"
         x="283.28906">2</tspan></text>
<text
       id="text106"
       style="font-variant:normal;font-weight:normal;font-size:23.99999809px;font-family:'DejaVu Sans';-inkscape-font-specification:DejaVuSans;writing-mode:lr-tb;fill:#000000;fill-opacity:1;fill-rule:nonzero;stroke:none"
       x="478.62054"
       y="412.85864"><tspan
         id="tspan102"
         sodipodi:role="line"
         y="412.85864"
         x="478.62054 491.10056 505.86053">FeO</tspan><tspan
         id="tspan104"
         sodipodi:role="line"
         y="410.5325"
         x="-2.3496039 18.338385 33.554386">MgO</tspan></text>
<path
       d="m 149.516,227.527 300.355,113.18"
       style="fill:#ff6600;fill-opacity:1;fill-rule:evenodd;stroke:#ff6600;stroke-width:5.66929102;stroke-linecap:butt;stroke-linejoin:miter;stroke-miterlimit:4;stroke-dasharray:11.338583, 11.338583;stroke-dashoffset:0;stroke-opacity:1"
       id="path110"
       inkscape:connector-curvature="0" /><path
       d="m 185.977,238.68 c 0,3.847 -3.118,6.965 -6.961,6.965 -3.848,0 -6.965,-3.118 -6.965,-6.965 0,-3.844 3.117,-6.965 6.965,-6.965 3.843,0 6.961,3.121 6.961,6.965 z"
       style="fill:none;stroke:#000000;stroke-width:2;stroke-linecap:butt;stroke-linejoin:round;stroke-miterlimit:4;stroke-dasharray:none;stroke-opacity:1"
       id="path114"
       inkscape:connector-curvature="0" /><path
       inkscape:connector-curvature="0"
       id="path116"
       style="fill:#008000;fill-opacity:1;fill-rule:nonzero;stroke:none"
       d="m 185.977,238.68 c 0,3.847 -3.118,6.965 -6.961,6.965 -3.848,0 -6.965,-3.118 -6.965,-6.965 0,-3.844 3.117,-6.965 6.965,-6.965 3.843,0 6.961,3.121 6.961,6.965 z" /><text
       id="text128"
       style="font-style:oblique;font-variant:normal;font-size:14px;font-family:'DejaVu Sans';-inkscape-font-specification:DejaVuSans-Oblique;writing-mode:lr-tb;fill:#ff0000;fill-opacity:1;fill-rule:nonzero;stroke:none"
       x="296.76834"
       y="276.189"><tspan
         id="tspan126"
         y="276.189"
         x="296.76834">ﬁ</tspan></text>
<text
       id="text132"
       style="font-style:oblique;font-variant:normal;font-size:14px;font-family:'DejaVu Sans';-inkscape-font-specification:DejaVuSans-Oblique;writing-mode:lr-tb;fill:#ff0000;fill-opacity:1;fill-rule:nonzero;stroke:none"
       x="305.79834"
       y="276.189"><tspan
         id="tspan130"
         sodipodi:role="line"
         y="276.189"
         x="305.79834 311.55234 318.83234 324.32034 328.75836 342.39435 351.00436 354.88235">rst melt</tspan></text>
<path
       d="m 293.938,280.539 c 0,3.848 -3.118,6.965 -6.965,6.965 -3.844,0 -6.965,-3.117 -6.965,-6.965 0,-3.848 3.121,-6.965 6.965,-6.965 3.847,0 6.965,3.117 6.965,6.965 z"
       style="fill:none;stroke:#000000;stroke-width:2;stroke-linecap:butt;stroke-linejoin:round;stroke-miterlimit:4;stroke-dasharray:none;stroke-opacity:1"
       id="path136"
       inkscape:connector-curvature="0" /><path
       inkscape:connector-curvature="0"
       id="path138"
       style="fill:#ff0000;fill-opacity:1;fill-rule:nonzero;stroke:none"
       d="m 293.938,280.539 c 0,3.848 -3.118,6.965 -6.965,6.965 -3.844,0 -6.965,-3.117 -6.965,-6.965 0,-3.848 3.121,-6.965 6.965,-6.965 3.847,0 6.965,3.117 6.965,6.965 z" /><path
       sodipodi:type="star"
       style="opacity:1;vector-effect:none;fill:#ffffff;fill-opacity:1;stroke:#000000;stroke-width:0.91214776;stroke-linecap:round;stroke-linejoin:round;stroke-miterlimit:4;stroke-dasharray:none;stroke-dashoffset:0;stroke-opacity:1;paint-order:fill markers stroke"
       id="path4879"
       sodipodi:sides="5"
       sodipodi:cx="149.2447"
       sodipodi:cy="227.70766"
       sodipodi:r1="11.23401"
       sodipodi:r2="4.4936042"
       sodipodi:arg1="0.92389965"
       sodipodi:arg2="1.5522182"
       inkscape:flatsided="false"
       inkscape:rounded="0"
       inkscape:randomized="0"
       d="m 156.01559,236.67193 -6.68741,-4.47144 -6.51668,4.71677 2.18607,-7.74185 -6.49969,-4.74017 8.03847,-0.31329 2.49966,-7.64636 2.78198,7.54822 8.04456,0.0145 -6.31911,4.97835 z"
       inkscape:transform-center-x="0.085990417"
       inkscape:transform-center-y="-0.37440523" /><path
       inkscape:transform-center-y="-0.37440523"
       inkscape:transform-center-x="0.085990417"
       d="m 456.52534,350.69672 -6.68741,-4.47144 -6.51668,4.71678 2.18607,-7.74185 -6.49969,-4.74018 8.03847,-0.31329 2.49966,-7.64636 2.78198,7.54823 8.04456,0.0145 -6.31911,4.97835 z"
       inkscape:randomized="0"
       inkscape:rounded="0"
       inkscape:flatsided="false"
       sodipodi:arg2="1.5522182"
       sodipodi:arg1="0.92389965"
       sodipodi:r2="4.4936042"
       sodipodi:r1="11.23401"
       sodipodi:cy="341.73244"
       sodipodi:cx="449.75446"
       sodipodi:sides="5"
       id="path4881"
       style="opacity:1;vector-effect:none;fill:#ffffff;fill-opacity:1;stroke:#000000;stroke-width:0.91214776;stroke-linecap:round;stroke-linejoin:round;stroke-miterlimit:4;stroke-dasharray:none;stroke-dashoffset:0;stroke-opacity:1;paint-order:fill markers stroke"
       sodipodi:type="star" /><text
       y="218.52991"
       x="9.0620165"
       style="font-style:oblique;font-variant:normal;font-size:19.99999809px;font-family:'DejaVu Sans';-inkscape-font-specification:DejaVuSans-Oblique;writing-mode:lr-tb;fill:#000000;fill-opacity:1;fill-rule:nonzero;stroke:none"
       id="text4964"><tspan
         x="9.0620165"
         y="218.52991"
         sodipodi:role="line"
         id="tspan4962">Mg-bearing </tspan><tspan
         x="9.0620165"
         y="243.52991"
         sodipodi:role="line"
         id="tspan4966">endmember</tspan></text>
<text
       id="text4972"
       style="font-style:oblique;font-variant:normal;font-size:19.99999809px;font-family:'DejaVu Sans';-inkscape-font-specification:DejaVuSans-Oblique;writing-mode:lr-tb;fill:#000000;fill-opacity:1;fill-rule:nonzero;stroke:none"
       x="395.36819"
       y="185.63387"><tspan
         id="tspan4968"
         sodipodi:role="line"
         y="185.63387"
         x="395.36819">Fe-bearing </tspan><tspan
         id="tspan4970"
         sodipodi:role="line"
         y="210.63387"
         x="395.36819">endmember</tspan></text>
<path
       style="fill:none;fill-rule:evenodd;stroke:#000000;stroke-width:1.125;stroke-linecap:butt;stroke-linejoin:miter;stroke-miterlimit:4;stroke-dasharray:none;stroke-opacity:1;marker-end:url(#Arrow1Lend)"
       d="m 138.63229,115.96328 c 19.7066,37.34013 4.95471,52.71724 24.8202,91.90845 5.97242,13.83087 14.23622,27.50506 14.23622,27.50506"
       id="path4974"
       inkscape:connector-curvature="0"
       sodipodi:nodetypes="ccc" /><path
       sodipodi:nodetypes="csc"
       inkscape:connector-curvature="0"
       id="path6160"
       d="m 484.38286,216.71947 c 7.90448,25.25368 3.70635,67.66858 -19.85291,102.37265 C 454.83342,333.37562 449.871,340.707 449.871,340.707"
       style="fill:none;fill-rule:evenodd;stroke:#000000;stroke-width:1.125;stroke-linecap:butt;stroke-linejoin:miter;stroke-miterlimit:4;stroke-dasharray:none;stroke-opacity:1;marker-end:url(#marker6164)" /></g></svg>