<?xml version="1.0" encoding="UTF-8" standalone="no"?>
<!-- Created with Inkscape (http://www.inkscape.org/) -->

<svg
   xmlns:dc="http://purl.org/dc/elements/1.1/"
   xmlns:cc="http://creativecommons.org/ns#"
   xmlns:rdf="http://www.w3.org/1999/02/22-rdf-syntax-ns#"
   xmlns:svg="http://www.w3.org/2000/svg"
   xmlns="http://www.w3.org/2000/svg"
   xmlns:xlink="http://www.w3.org/1999/xlink"
   xmlns:sodipodi="http://sodipodi.sourceforge.net/DTD/sodipodi-0.dtd"
   xmlns:inkscape="http://www.inkscape.org/namespaces/inkscape"
   id="svg2"
   version="1.1"
   inkscape:version="0.91 r13725"
   xml:space="preserve"
   width="226.00717mm"
   height="56.222057mm"
   viewBox="0 0 800.8128 199.21202"
   sodipodi:docname="burnlogo.svg"><metadata
     id="metadata8"><rdf:RDF><cc:Work
         rdf:about=""><dc:format>image/svg+xml</dc:format><dc:type
           rdf:resource="http://purl.org/dc/dcmitype/StillImage" /><dc:title /></cc:Work></rdf:RDF></metadata><defs
     id="defs6"><linearGradient
       inkscape:collect="always"
       id="linearGradient8815"><stop
         style="stop-color:#ffcc00;stop-opacity:1;"
         offset="0"
         id="stop8817" /><stop
         style="stop-color:#ff4300;stop-opacity:1"
         offset="1"
         id="stop8819" /></linearGradient><linearGradient
       inkscape:collect="always"
       xlink:href="#linearGradient8815"
       id="linearGradient9095"
       gradientUnits="userSpaceOnUse"
       x1="-65.085358"
       y1="444.38657"
       x2="-57.553921"
       y2="493.92593" /><linearGradient
       inkscape:collect="always"
       xlink:href="#linearGradient8815"
       id="linearGradient9097"
       gradientUnits="userSpaceOnUse"
       x1="-64.871132"
       y1="527.10333"
       x2="-68.107925"
       y2="583.46332" /><linearGradient
       inkscape:collect="always"
       xlink:href="#linearGradient8815"
       id="linearGradient9125"
       x1="226.52614"
       y1="-462.74866"
       x2="227.15842"
       y2="-504.37805"
       gradientUnits="userSpaceOnUse"
       gradientTransform="translate(75.2,0)" /><linearGradient
       inkscape:collect="always"
       xlink:href="#linearGradient8815"
       id="linearGradient9227"
       x1="24.708944"
       y1="473.86511"
       x2="43.071049"
       y2="502.53873"
       gradientUnits="userSpaceOnUse" /><linearGradient
       inkscape:collect="always"
       xlink:href="#linearGradient8815"
       id="linearGradient8403"
       x1="505.46634"
       y1="-540.1059"
       x2="505.17816"
       y2="-560.92682"
       gradientUnits="userSpaceOnUse" /><linearGradient
       inkscape:collect="always"
       xlink:href="#linearGradient8815"
       id="linearGradient8411"
       x1="505.46634"
       y1="-540.1059"
       x2="505.17816"
       y2="-560.92682"
       gradientUnits="userSpaceOnUse"
       gradientTransform="translate(-18.834325,28.22771)" /></defs><sodipodi:namedview
     pagecolor="#ffffff"
     bordercolor="#666666"
     borderopacity="1"
     objecttolerance="10"
     gridtolerance="10"
     guidetolerance="10"
     inkscape:pageopacity="0"
     inkscape:pageshadow="2"
     inkscape:window-width="3200"
     inkscape:window-height="1707"
     id="namedview4"
     showgrid="false"
     units="mm"
     inkscape:zoom="6.8248774"
     inkscape:cx="64.372822"
     inkscape:cy="98.621835"
     inkscape:window-x="0"
     inkscape:window-y="49"
     inkscape:window-maximized="1"
     inkscape:current-layer="g10"
     fit-margin-top="0"
     fit-margin-left="0"
     fit-margin-right="0"
     fit-margin-bottom="0" /><g
     id="g10"
     inkscape:groupmode="layer"
     inkscape:label="u"
     transform="matrix(1.25,0,0,-1.25,115.69035,747.30844)"><path
       sodipodi:nodetypes="casc"
       inkscape:connector-curvature="0"
       id="path9217"
       d="m 51.108697,496.2887 c 0,0 2.272013,7.73514 3.997942,11.35923 1.547411,3.24924 3.342561,6.39559 5.647889,9.20162 1.209726,1.47247 3.004919,3.4894 4.76005,5.17133"
       style="fill:none;fill-rule:evenodd;stroke:#ff4300;stroke-width:16;stroke-linecap:butt;stroke-linejoin:miter;stroke-miterlimit:4;stroke-dasharray:none;stroke-opacity:1" /><path
       sodipodi:nodetypes="caac"
       inkscape:connector-curvature="0"
       id="path9199"
       d="m 50.7914,496.98675 c 0,0 2.207613,7.37205 3.934482,10.7881 1.638376,3.24099 3.705332,6.28355 6.028646,9.0747 2.598382,3.12161 8.757402,8.47184 8.757402,8.47184"
       style="fill:#000000;fill-opacity:1;fill-rule:evenodd;stroke:#ff4300;stroke-width:12.80000019;stroke-linecap:butt;stroke-linejoin:miter;stroke-miterlimit:4;stroke-dasharray:none;stroke-opacity:1" /><path
       sodipodi:nodetypes="ccccccccccccccccccccccccccccccc"
       inkscape:connector-curvature="0"
       id="path9193"
       style="fill:#000000;fill-opacity:0;stroke:#ff4300;stroke-width:16;stroke-linecap:round;stroke-linejoin:round;stroke-miterlimit:10;stroke-dasharray:none;stroke-opacity:1"
       d="m 50.108487,506.02644 4.40862,5.2233 4.75668,5.04932 5.13218,4.81923 5.53737,4.54688 5.97452,4.24599 6.44619,3.92913 6.95509,3.60735 7.504173,3.28975 8.09661,2.98347 8.7358,2.69385 9.42547,2.42452 10.16958,2.17778 10.97242,1.95483 11.83868,1.75597 12.77328,1.58094 13.7817,1.42911 14.86974,1.29957 16.04363,1.19142 17.31023,1.10378 18.67683,1.03595 20.15128,0.98753 21.74219,0.95851 23.45864,0.94943 25.31063,0.96156 27.30881,0.99714 29.46476,1.05988 31.7909,1.15552 34.3007,1.293 37.00863,1.48636 39.93033,1.75828" /><text
       transform="scale(1,-1)"
       sodipodi:linespacing="125%"
       id="text9113"
       y="-447.41324"
       x="-21.050447"
       style="font-style:italic;font-variant:normal;font-weight:normal;font-stretch:normal;font-size:180px;line-height:125%;font-family:Junicode;-inkscape-font-specification:'Junicode Italic';letter-spacing:0px;word-spacing:0px;opacity:1;fill:#000000;fill-opacity:1;stroke:url(#linearGradient9125);stroke-width:9.60000038;stroke-linecap:butt;stroke-linejoin:round;stroke-miterlimit:4;stroke-dasharray:none;stroke-opacity:1"
       xml:space="preserve"><tspan
         style="fill:#000000;fill-opacity:1;stroke:url(#linearGradient9125);stroke-width:9.60000038;stroke-linejoin:round;stroke-miterlimit:4;stroke-dasharray:none"
         y="-447.41324"
         x="-21.050447"
         id="tspan9115"
         sodipodi:role="line"><tspan
   id="tspan9117"
   style="fill:#000000;fill-opacity:0;stroke:url(#linearGradient9125);stroke-width:9.60000038;stroke-linejoin:round;stroke-miterlimit:4;stroke-dasharray:none">u</tspan>rnMan</tspan></text>
<path
       sodipodi:nodetypes="caaaaaacsaascaassaaaac"
       inkscape:connector-curvature="0"
       id="path9089"
       d="m -81.228088,548.79724 c 0,0 5.734129,-21.84388 5.584434,-32.99891 -0.152747,-11.38244 -4.42494,-22.33281 -6.599778,-33.50659 -1.712011,-8.79588 -6.894029,-17.62438 -5.07676,-26.39912 0.913805,-4.41234 3.465739,-9.41208 7.615134,-11.16886 8.223833,-3.48182 18.541537,0.32494 26.399128,4.56908 9.375585,5.06406 14.423258,15.69241 21.830048,23.35307 4.158757,4.3013 12.691888,12.69189 12.691888,12.69189 0,0 -3.958685,-1.86557 -8.388767,-4.18693 -0.882881,-0.46263 3.111479,15.6579 4.176801,23.56332 0.319312,2.36951 1.489777,4.89897 0.662299,7.14215 -1.077637,2.92131 -3.582485,6.51842 -6.696225,6.513 -4.576808,-0.008 -8.691429,-0.96215 -15.119676,-9.08661 4.440618,1.10341 6.898521,3.97721 9.564004,2.09417 3.930871,-2.77698 2.498084,-9.56332 1.802218,-14.32558 -1.655892,-11.33235 -10.655744,-27.88262 -13.863351,-31.43698 -3.074492,-3.40685 -6.289969,-6.55734 -10.466805,-8.1987 -3.544639,-1.39293 -8.083093,-2.08461 -11.4227,-0.25383 -2.430386,1.33234 -3.714989,4.40161 -4.315242,7.10745 -2.525472,11.38445 3.610935,23.11624 3.807567,34.77578 0.151665,8.99316 0.166455,18.18485 -2.030703,26.9068 -2.035673,8.08091 -10.153514,22.8454 -10.153514,22.8454 z"
       style="fill:#000000;fill-opacity:0;fill-rule:evenodd;stroke:url(#linearGradient9095);stroke-width:9.60000038;stroke-linecap:square;stroke-linejoin:round;stroke-miterlimit:4;stroke-dasharray:none;stroke-opacity:1" /><path
       sodipodi:nodetypes="cssssczaczcssc"
       inkscape:connector-curvature="0"
       id="path9091"
       d="m -86.051002,587.88825 c 0,0 5.655367,-4.03824 8.34839,-11.83578 1.647857,-4.7713 0.951412,-12.97131 0.78977,-16.59404 -0.263,-5.89438 1.147265,-10.96269 3.046227,-15.49229 1.175527,-2.80398 2.538325,-5.40153 3.807393,-7.8608 3.899037,-7.55577 2.80497,-26.12723 2.80497,-26.12723 0,0 4.161718,22.36688 6.451087,29.72452 2.289369,7.35764 7.369527,15.47702 7.751072,23.8172 0.461284,10.0832 -6.702736,29.5301 -6.702736,29.5301 0,0 2.202626,-22.64945 -0.812537,-28.25344 -3.015164,-5.60399 -6.550946,-14.47094 -6.550946,-14.47094 0,0 -2.012914,-0.7874 -2.882864,3.94083 -0.741671,4.03102 0.147661,10.04928 -1.327236,15.85323 -3.204892,12.61175 -14.72259,17.76864 -14.72259,17.76864 z"
       style="fill:#000000;fill-opacity:0;fill-rule:evenodd;stroke:url(#linearGradient9097);stroke-width:9.60000038;stroke-linecap:butt;stroke-linejoin:round;stroke-miterlimit:4;stroke-dasharray:none;stroke-opacity:1" /><text
       xml:space="preserve"
       style="font-style:italic;font-variant:normal;font-weight:normal;font-stretch:normal;font-size:180px;line-height:125%;font-family:Junicode;-inkscape-font-specification:'Junicode Italic';letter-spacing:0px;word-spacing:0px;opacity:1;fill:#000000;fill-opacity:1;stroke:none;stroke-width:3.20000005;stroke-linecap:butt;stroke-linejoin:miter;stroke-miterlimit:4;stroke-dasharray:none;stroke-opacity:1"
       x="-96.250404"
       y="-447.41324"
       id="text8663"
       sodipodi:linespacing="125%"
       transform="scale(1,-1)"><tspan
         sodipodi:role="line"
         id="tspan8665"
         x="-96.250404"
         y="-447.41324"
         style="fill:#000000;fill-opacity:1"><tspan
   style="fill:#000000;fill-opacity:0"
   id="tspan9101">b</tspan>urnMan</tspan></text>
<g
       transform="scale(1,-1)"
       style="font-style:italic;font-variant:normal;font-weight:normal;font-stretch:normal;font-size:180px;line-height:125%;font-family:Junicode;-inkscape-font-specification:'Junicode Italic';letter-spacing:0px;word-spacing:0px;fill:#000000;fill-opacity:1;stroke:none;stroke-width:1px;stroke-linecap:butt;stroke-linejoin:miter;stroke-opacity:1"
       id="text8583" /><path
       sodipodi:nodetypes="caaaaaacsaascaassaaaac"
       inkscape:connector-curvature="0"
       id="path9008"
       d="m -81.228088,548.79724 c 0,0 5.734129,-21.84388 5.584434,-32.99891 -0.152747,-11.38244 -4.42494,-22.33281 -6.599778,-33.50659 -1.712011,-8.79588 -6.894029,-17.62438 -5.07676,-26.39912 0.913805,-4.41234 3.465739,-9.41208 7.615134,-11.16886 8.223833,-3.48182 18.541537,0.32494 26.399128,4.56908 9.375585,5.06406 14.423258,15.69241 21.830048,23.35307 4.158757,4.3013 12.691888,12.69189 12.691888,12.69189 0,0 -3.958685,-1.86557 -8.388767,-4.18693 -0.882881,-0.46263 3.111479,15.6579 4.176801,23.56332 0.319312,2.36951 1.489777,4.89897 0.662299,7.14215 -1.077637,2.92131 -3.582485,6.51842 -6.696225,6.513 -4.576808,-0.008 -8.691429,-0.96215 -15.119676,-9.08661 4.440618,1.10341 6.898521,3.97721 9.564004,2.09417 3.930871,-2.77698 2.498084,-9.56332 1.802218,-14.32558 -1.655892,-11.33235 -10.655744,-27.88262 -13.863351,-31.43698 -3.074492,-3.40685 -6.289969,-6.55734 -10.466805,-8.1987 -3.544639,-1.39293 -8.083093,-2.08461 -11.4227,-0.25383 -2.430386,1.33234 -3.714989,4.40161 -4.315242,7.10745 -2.525472,11.38445 3.610935,23.11624 3.807567,34.77578 0.151665,8.99316 0.166455,18.18485 -2.030703,26.9068 -2.035673,8.08091 -10.153514,22.8454 -10.153514,22.8454 z"
       style="fill:#000000;fill-opacity:1;fill-rule:evenodd;stroke:none;stroke-width:2.4000001;stroke-linecap:butt;stroke-linejoin:miter;stroke-miterlimit:4;stroke-dasharray:none;stroke-opacity:1" /><path
       sodipodi:nodetypes="cssssczaczcssc"
       inkscape:connector-curvature="0"
       id="path8925"
       d="m -86.051002,587.88825 c 0,0 5.655367,-4.03824 8.34839,-11.83578 1.647857,-4.7713 0.951412,-12.97131 0.78977,-16.59404 -0.263,-5.89438 1.147265,-10.96269 3.046227,-15.49229 1.175527,-2.80398 2.538325,-5.40153 3.807393,-7.8608 3.899037,-7.55577 2.80497,-26.12723 2.80497,-26.12723 0,0 4.161718,22.36688 6.451087,29.72452 2.289369,7.35764 7.369527,15.47702 7.751072,23.8172 0.461284,10.0832 -6.702736,29.5301 -6.702736,29.5301 0,0 2.202626,-22.64945 -0.812537,-28.25344 -3.015164,-5.60399 -6.550946,-14.47094 -6.550946,-14.47094 0,0 -2.012914,-0.7874 -2.882864,3.94083 -0.741671,4.03102 0.147661,10.04928 -1.327236,15.85323 -3.204892,12.61175 -14.72259,17.76864 -14.72259,17.76864 z"
       style="fill:#000000;fill-opacity:1;fill-rule:evenodd;stroke:none;stroke-width:2.4000001;stroke-linecap:round;stroke-linejoin:round;stroke-miterlimit:4;stroke-dasharray:none;stroke-opacity:1" /><flowRoot
       xml:space="preserve"
       id="flowRoot8979"
       style="font-style:normal;font-weight:normal;font-size:10px;line-height:125%;font-family:sans-serif;letter-spacing:0px;word-spacing:0px;fill:#000000;fill-opacity:1;stroke:none;stroke-width:1px;stroke-linecap:butt;stroke-linejoin:miter;stroke-opacity:1"><flowRegion
         id="flowRegion8981"><rect
           id="rect8983"
           width="139.10506"
           height="10.320698"
           x="-45.770054"
           y="237.6214" /></flowRegion><flowPara
         id="flowPara8985" /></flowRoot><text
       xml:space="preserve"
       style="font-style:normal;font-weight:normal;font-size:8px;line-height:125%;font-family:sans-serif;letter-spacing:0px;word-spacing:0px;fill:#000000;fill-opacity:1;stroke:none;stroke-width:1px;stroke-linecap:butt;stroke-linejoin:miter;stroke-opacity:1"
       x="304.69263"
       y="-341.51114"
       id="text9047"
       sodipodi:linespacing="125%"
       transform="scale(1,-1)"><tspan
         sodipodi:role="line"
         id="tspan9049"
         x="304.69263"
         y="-341.51114" /></text>
<flowRoot
       xml:space="preserve"
       id="flowRoot9105"
       style="font-style:normal;font-weight:normal;font-size:10px;line-height:125%;font-family:sans-serif;letter-spacing:0px;word-spacing:0px;fill:#000000;fill-opacity:1;stroke:none;stroke-width:1px;stroke-linecap:butt;stroke-linejoin:miter;stroke-opacity:1"><flowRegion
         id="flowRegion9107"><rect
           id="rect9109"
           width="162.43881"
           height="113.52768"
           x="-58.334381"
           y="124.99117" /></flowRegion><flowPara
         id="flowPara9111" /></flowRoot><flowRoot
       xml:space="preserve"
       id="flowRoot9151"
       style="font-style:normal;font-weight:normal;font-size:10px;line-height:125%;font-family:sans-serif;letter-spacing:0px;word-spacing:0px;fill:#000000;fill-opacity:1;stroke:none;stroke-width:1px;stroke-linecap:butt;stroke-linejoin:miter;stroke-opacity:1"><flowRegion
         id="flowRegion9153"><rect
           id="rect9155"
           width="82.497276"
           height="12.691888"
           x="117.39996"
           y="231.42784" /></flowRegion><flowPara
         id="flowPara9157" /></flowRoot><text
       xml:space="preserve"
       style="font-style:normal;font-weight:normal;font-size:8px;line-height:125%;font-family:sans-serif;letter-spacing:0px;word-spacing:0px;fill:#000000;fill-opacity:1;stroke:none;stroke-width:1px;stroke-linecap:butt;stroke-linejoin:miter;stroke-opacity:1"
       x="184.62735"
       y="-623.5249"
       id="text9185"
       sodipodi:linespacing="125%"
       transform="scale(1,-1)"><tspan
         sodipodi:role="line"
         id="tspan9187"
         x="184.62735"
         y="-623.5249" /></text>
<path
       d="m 50.108487,506.02644 4.40862,5.2233 4.75668,5.04932 5.13218,4.81923 5.53737,4.54688 5.97452,4.24599 6.44619,3.92913 6.95509,3.60735 7.504173,3.28975 8.09661,2.98347 8.7358,2.69385 9.42547,2.42452 10.16958,2.17778 10.97242,1.95483 11.83868,1.75597 12.77328,1.58094 13.7817,1.42911 14.86974,1.29957 16.04363,1.19142 17.31023,1.10378 18.67683,1.03595 20.15128,0.98753 21.74219,0.95851 23.45864,0.94943 25.31063,0.96156 27.30881,0.99714 29.46476,1.05988 31.7909,1.15552 34.3007,1.293 37.00863,1.48636 39.93033,1.75828"
       style="fill:none;stroke:#000000;stroke-width:8;stroke-linecap:round;stroke-linejoin:round;stroke-miterlimit:10;stroke-dasharray:none;stroke-opacity:1"
       id="path9195"
       inkscape:connector-curvature="0"
       sodipodi:nodetypes="ccccccccccccccccccccccccccccccc" /><path
       style="fill:none;fill-rule:evenodd;stroke:#000000;stroke-width:8;stroke-linecap:butt;stroke-linejoin:miter;stroke-miterlimit:4;stroke-dasharray:none;stroke-opacity:1"
       d="m 50.7914,496.98675 c 0,0 2.207613,7.37205 3.934482,10.7881 1.638376,3.24099 3.723318,6.26867 6.028646,9.0747 1.209726,1.47247 3.004919,3.4894 4.76005,5.17133"
       id="path9197"
       inkscape:connector-curvature="0"
       sodipodi:nodetypes="casc" /><path
       style="fill:none;fill-rule:evenodd;stroke:#ffffff;stroke-width:8;stroke-linecap:butt;stroke-linejoin:miter;stroke-miterlimit:4;stroke-dasharray:none;stroke-opacity:1"
       d="m 56.375827,530.04912 c 0,0 -8.601991,-8.30865 -12.282226,-12.9979 -4.823132,-6.14549 -12.720795,-19.68371 -12.720795,-19.68371"
       id="path9201"
       inkscape:connector-curvature="0"
       sodipodi:nodetypes="cac" /><path
       style="fill:none;fill-rule:evenodd;stroke:url(#linearGradient9227);stroke-width:4;stroke-linecap:butt;stroke-linejoin:miter;stroke-miterlimit:4;stroke-dasharray:none;stroke-opacity:1"
       d="m 58.566894,523.83066 c 0,0 -2.945869,-2.68174 -4.305902,-4.13411 -1.683422,-1.79772 -3.28437,-3.67947 -4.756495,-5.65394 -1.752003,-2.34986 -3.301316,-4.84697 -4.833097,-7.34597 -2.395972,-3.90887 -3.701604,-5.98328 -6.808653,-11.95079"
       id="path9219"
       inkscape:connector-curvature="0"
       sodipodi:nodetypes="caaac" /><text
       xml:space="preserve"
       style="font-style:normal;font-weight:normal;font-size:20px;line-height:125%;font-family:sans-serif;letter-spacing:0px;word-spacing:0px;fill:#000000;fill-opacity:1;stroke:url(#linearGradient8411);stroke-width:1px;stroke-linecap:butt;stroke-linejoin:miter;stroke-opacity:1"
       x="459.69711"
       y="-525.4823"
       id="text8383"
       sodipodi:linespacing="125%"
       transform="matrix(0.99911839,0.04198135,0.04198135,-0.99911839,0,0)"><tspan
         sodipodi:role="line"
         id="tspan8385"
         x="459.69711"
         y="-525.4823"
         style="font-style:italic;font-variant:normal;font-weight:normal;font-stretch:normal;font-size:20px;font-family:Junicode;-inkscape-font-specification:'Junicode Italic';fill:#000000;fill-opacity:1;stroke:url(#linearGradient8411);stroke-opacity:1">Cp (forsterite)</tspan></text>
<text
       transform="matrix(0.99911839,0.04198135,0.04198135,-0.99911839,0,0)"
       sodipodi:linespacing="125%"
       id="text8413"
       y="-525.4823"
       x="459.69711"
       style="font-style:normal;font-weight:normal;font-size:20px;line-height:125%;font-family:sans-serif;letter-spacing:0px;word-spacing:0px;fill:#000000;fill-opacity:1;stroke:none;stroke-width:1px;stroke-linecap:butt;stroke-linejoin:miter;stroke-opacity:1"
       xml:space="preserve"><tspan
         style="font-style:italic;font-variant:normal;font-weight:normal;font-stretch:normal;font-size:20px;font-family:Junicode;-inkscape-font-specification:'Junicode Italic';fill:#000000;fill-opacity:1;stroke:none;stroke-opacity:1"
         y="-525.4823"
         x="459.69711"
         id="tspan8415"
         sodipodi:role="line">Cp (forsterite)</tspan></text>
<text
       xml:space="preserve"
       style="font-style:normal;font-weight:normal;font-size:8px;line-height:125%;font-family:sans-serif;letter-spacing:0px;word-spacing:0px;fill:#000000;fill-opacity:1;stroke:none;stroke-width:1px;stroke-linecap:butt;stroke-linejoin:miter;stroke-opacity:1"
       x="412.71954"
       y="-394.3819"
       id="text8116"
       sodipodi:linespacing="125%"
       transform="scale(1,-1)"><tspan
         sodipodi:role="line"
         id="tspan8118"
         x="412.71954"
         y="-394.3819">--</tspan></text>
<text
       xml:space="preserve"
       style="font-style:normal;font-weight:normal;font-size:8px;line-height:125%;font-family:sans-serif;letter-spacing:0px;word-spacing:0px;fill:#000000;fill-opacity:1;stroke:none;stroke-width:1px;stroke-linecap:butt;stroke-linejoin:miter;stroke-opacity:1"
       x="312.26196"
       y="-389.40875"
       id="text8120"
       sodipodi:linespacing="125%"
       transform="scale(1,-1)"><tspan
         sodipodi:role="line"
         id="tspan8122"
         x="312.26196"
         y="-389.40875" /></text>
<path
       style="fill:#000000;fill-rule:evenodd;stroke:none;stroke-width:0.80000001px;stroke-linecap:butt;stroke-linejoin:miter;stroke-opacity:1"
       d="m -40.272953,537.87819 c 0,0 -3.277515,-4.10932 -3.340475,-6.90191 -0.0043,-0.19088 -4.990441,-2.29339 -8.068581,1.25479 -1.302244,-2.36468 -3.638888,-8.16155 2.168214,-8.03207 1.080011,0.0241 2.986462,-0.39895 1.163879,-2.9316 -2.259124,-3.13926 -5.615037,-5.97005 -8.11163,-9.21126 -1.394697,-1.81067 -2.672451,-3.52827 -3.818668,-5.69484 0,0 -1.356138,3.72482 -1.386647,5.67042 -0.107826,6.87598 4.26982,20.18378 4.26982,20.18378 0,0 -6.844179,-17.36638 -8.449794,-26.49678 -0.702428,-3.99438 -0.07708,-8.12192 -0.479797,-12.15756 -0.396612,-3.97444 -1.902868,-11.8305 -1.902868,-11.8305 0,0 3.547586,6.66021 5.675443,9.76661 5.110501,7.46066 10.770348,14.58009 16.947921,21.18436 3.940936,4.21314 8.218678,8.13538 12.763254,11.68903 2.017315,1.57744 4.753593,2.97029 6.401679,4.24729 6.486074,5.02567 12.745628,11.7409 14.769494,19.69266 1.6864436,6.62603 -1.554584,13.60616 -2.964785,20.29643 -1.132541,5.37299 -0.26298,10.38973 -4.400859,15.87444 -3.95787,-1.3294 -13.554739,-4.1478 -19.946199,-2.17758 -4.369935,1.34707 -10.432422,8.90858 -10.432422,8.90858 0,0 2.153171,-6.61412 3.868201,-9.61189 1.17591,-2.05541 2.276818,-4.45907 4.337074,-5.62648 3.795919,-2.15089 8.947219,0.0898 12.999442,-1.52728 1.691668,-0.67506 3.3377,-1.77654 4.374857,-3.27378 2.689006,-3.88187 3.020721,-8.97419 3.959418,-13.6022 0.537153,-2.6483 3.416012,-6.95518 0.946076,-8.05129 -4.708756,-2.08965 -6.135571,7.18221 -6.135571,7.18221 0,0 2.057295,-9.15973 0.787206,-13.47664 -0.868642,-2.95243 -3.17485,-5.37789 -5.444042,-7.45687 -1.783641,-1.63413 -3.839497,-4.22034 -6.212566,-3.75098 -2.384186,0.47157 -4.337074,5.86091 -4.337074,5.86091 z"
       id="path8124"
       inkscape:connector-curvature="0"
       sodipodi:nodetypes="cscssacacaacaaasaacacaaaaascaaac" /></g></svg>