<?xml version="1.0" encoding="UTF-8" standalone="no"?>
<!-- Created with Inkscape (http://www.inkscape.org/) -->

<svg
   xmlns:dc="http://purl.org/dc/elements/1.1/"
   xmlns:cc="http://creativecommons.org/ns#"
   xmlns:rdf="http://www.w3.org/1999/02/22-rdf-syntax-ns#"
   xmlns:svg="http://www.w3.org/2000/svg"
   xmlns="http://www.w3.org/2000/svg"
   xmlns:xlink="http://www.w3.org/1999/xlink"
   xmlns:sodipodi="http://sodipodi.sourceforge.net/DTD/sodipodi-0.dtd"
   xmlns:inkscape="http://www.inkscape.org/namespaces/inkscape"
   id="svg2"
   version="1.1"
   inkscape:version="0.91 r13725"
   xml:space="preserve"
   width="285.9874mm"
   height="102.62735mm"
   viewBox="0 0 1013.3412 363.64022"
   sodipodi:docname="burnlogo_camelcase_w_globe_silly.svg"><metadata
     id="metadata8"><rdf:RDF><cc:Work
         rdf:about=""><dc:format>image/svg+xml</dc:format><dc:type
           rdf:resource="http://purl.org/dc/dcmitype/StillImage" /><dc:title /></cc:Work></rdf:RDF></metadata><defs
     id="defs6"><linearGradient
       id="linearGradient8414"
       inkscape:collect="always"><stop
         id="stop8416"
         offset="0"
         style="stop-color:#ffcc00;stop-opacity:1;" /><stop
         id="stop8418"
         offset="1"
         style="stop-color:#ff4300;stop-opacity:1" /></linearGradient><linearGradient
       inkscape:collect="always"
       id="linearGradient8815"><stop
         style="stop-color:#ffcc00;stop-opacity:1;"
         offset="0"
         id="stop8817" /><stop
         style="stop-color:#ff4300;stop-opacity:1"
         offset="1"
         id="stop8819" /></linearGradient><linearGradient
       inkscape:collect="always"
       xlink:href="#linearGradient8815"
       id="linearGradient9125"
       x1="226.52614"
       y1="-462.74866"
       x2="227.15842"
       y2="-504.37805"
       gradientUnits="userSpaceOnUse"
       gradientTransform="translate(75.2,-1.9899926)" /><linearGradient
       inkscape:collect="always"
       xlink:href="#linearGradient8815"
       id="linearGradient9227"
       x1="24.708944"
       y1="473.86511"
       x2="47.25803"
       y2="508.57578"
       gradientUnits="userSpaceOnUse"
       gradientTransform="translate(0,1.9899926)" /><linearGradient
       inkscape:collect="always"
       xlink:href="#linearGradient8815"
       id="linearGradient8403"
       x1="505.46634"
       y1="-540.1059"
       x2="505.17816"
       y2="-560.92682"
       gradientUnits="userSpaceOnUse" /><linearGradient
       inkscape:collect="always"
       xlink:href="#linearGradient8815"
       id="linearGradient8411"
       x1="505.46634"
       y1="-540.1059"
       x2="505.17816"
       y2="-560.92682"
       gradientUnits="userSpaceOnUse"
       gradientTransform="translate(-18.750782,26.239472)" /><linearGradient
       inkscape:collect="always"
       xlink:href="#linearGradient8815"
       id="linearGradient8184"
       x1="-48.550262"
       y1="468.27121"
       x2="-40.200169"
       y2="525.23926"
       gradientUnits="userSpaceOnUse" /><linearGradient
       inkscape:collect="always"
       xlink:href="#linearGradient8815"
       id="linearGradient8225"
       gradientUnits="userSpaceOnUse"
       gradientTransform="translate(75.2,-160.00015)"
       x1="226.52614"
       y1="-462.74866"
       x2="227.15842"
       y2="-504.37805" /><linearGradient
       inkscape:collect="always"
       xlink:href="#linearGradient8414"
       id="linearGradient8420"
       gradientUnits="userSpaceOnUse"
       x1="310.47873"
       y1="455.16855"
       x2="316.5022"
       y2="500.6492" /><linearGradient
       inkscape:collect="always"
       xlink:href="#linearGradient8414"
       id="linearGradient8422"
       gradientUnits="userSpaceOnUse"
       x1="310.47873"
       y1="455.16855"
       x2="316.5022"
       y2="500.6492" /><linearGradient
       inkscape:collect="always"
       xlink:href="#linearGradient8414"
       id="linearGradient8424"
       gradientUnits="userSpaceOnUse"
       x1="310.47873"
       y1="455.16855"
       x2="316.5022"
       y2="500.6492" /><linearGradient
       inkscape:collect="always"
       xlink:href="#linearGradient8414"
       id="linearGradient8426"
       gradientUnits="userSpaceOnUse"
       x1="310.47873"
       y1="455.16855"
       x2="316.5022"
       y2="500.6492" /><linearGradient
       inkscape:collect="always"
       xlink:href="#linearGradient8414"
       id="linearGradient8428"
       gradientUnits="userSpaceOnUse"
       x1="310.47873"
       y1="455.16855"
       x2="316.5022"
       y2="500.6492" /><linearGradient
       inkscape:collect="always"
       xlink:href="#linearGradient8815"
       id="linearGradient8456"
       gradientUnits="userSpaceOnUse"
       x1="-48.550262"
       y1="468.27121"
       x2="-40.200169"
       y2="525.23926" /><linearGradient
       inkscape:collect="always"
       xlink:href="#linearGradient8815"
       id="linearGradient8458"
       gradientUnits="userSpaceOnUse"
       x1="-48.550262"
       y1="468.27121"
       x2="-40.200169"
       y2="525.23926" /><linearGradient
       inkscape:collect="always"
       xlink:href="#linearGradient8815"
       id="linearGradient8460"
       gradientUnits="userSpaceOnUse"
       x1="-48.550262"
       y1="468.27121"
       x2="-40.200169"
       y2="525.23926" /><clipPath
       clipPathUnits="userSpaceOnUse"
       id="clipPath8222"><path
         sodipodi:nodetypes="csssasscccccccc"
         inkscape:connector-curvature="0"
         id="path8224"
         d="m 84.594123,538.45151 c 0,0 -18.272107,-5.27815 -19.079446,-6.0136 -1.22945,-1.11998 -5.801086,-2.75056 -6.287494,-3.20596 -0.945625,-0.88533 -3.925689,-3.55078 -4.659988,-4.33493 -1.683425,-1.79772 -2.803478,-2.99038 -4.135998,-4.54667 -2.149409,-2.51036 -4.646051,-5.24813 -6.219101,-7.72136 -2.3651,-3.71853 -5.920043,-10.36352 -8.123278,-14.05976 -0.868507,-1.45704 -2.321146,-3.77266 -3.47558,-5.69912 -3.765485,-5.40128 -7.093369,-2.61071 -6.886357,3.61088 l 8.249527,51.55388 -124.318294,-45.9304 47.767621,-102.88411 276.807235,22.3528 0.3062,120.64386 z"
         style="fill:#000000;fill-opacity:0.55721388;fill-rule:evenodd;stroke:none;stroke-width:4;stroke-linecap:butt;stroke-linejoin:miter;stroke-miterlimit:4;stroke-dasharray:none;stroke-opacity:1" /></clipPath><linearGradient
       inkscape:collect="always"
       xlink:href="#linearGradient8815"
       id="linearGradient8163"
       x1="385.1817"
       y1="474.42712"
       x2="378.7338"
       y2="532.61816"
       gradientUnits="userSpaceOnUse" /><clipPath
       clipPathUnits="userSpaceOnUse"
       id="clipPath8222-3"><path
         sodipodi:nodetypes="csssasscccccccc"
         inkscape:connector-curvature="0"
         id="path8224-6"
         d="m 84.594123,538.45151 c 0,0 -18.272107,-5.27815 -19.079446,-6.0136 -1.22945,-1.11998 -5.801086,-2.75056 -6.287494,-3.20596 -0.945625,-0.88533 -3.925689,-3.55078 -4.659988,-4.33493 -1.683425,-1.79772 -2.803478,-2.99038 -4.135998,-4.54667 -2.149409,-2.51036 -4.646051,-5.24813 -6.219101,-7.72136 -2.3651,-3.71853 -5.920043,-10.36352 -8.123278,-14.05976 -0.868507,-1.45704 -2.321146,-3.77266 -3.47558,-5.69912 -3.765485,-5.40128 -7.093369,-2.61071 -6.886357,3.61088 l 8.249527,51.55388 -124.318294,-45.9304 47.767621,-102.88411 276.807235,22.3528 0.3062,120.64386 z"
         style="fill:#000000;fill-opacity:0.55721388;fill-rule:evenodd;stroke:none;stroke-width:4;stroke-linecap:butt;stroke-linejoin:miter;stroke-miterlimit:4;stroke-dasharray:none;stroke-opacity:1" /></clipPath><linearGradient
       inkscape:collect="always"
       xlink:href="#linearGradient8414"
       id="linearGradient8193"
       x1="226.52614"
       y1="-462.74866"
       x2="227.15842"
       y2="-504.37805"
       gradientUnits="userSpaceOnUse"
       gradientTransform="translate(75.2,-1.9899926)" /><linearGradient
       inkscape:collect="always"
       xlink:href="#linearGradient8414"
       id="linearGradient8201"
       x1="226.52614"
       y1="-462.74866"
       x2="227.15842"
       y2="-504.37805"
       gradientUnits="userSpaceOnUse"
       gradientTransform="translate(75.2,-1.9899926)" /><linearGradient
       inkscape:collect="always"
       xlink:href="#linearGradient8815"
       id="linearGradient13796"
       x1="312.23566"
       y1="455.60678"
       x2="313.32657"
       y2="517.92462"
       gradientUnits="userSpaceOnUse" /><clipPath
       clipPathUnits="userSpaceOnUse"
       id="clipPath13850"><path
         style="fill:#000000;fill-opacity:0.55721388;fill-rule:evenodd;stroke:none;stroke-width:4;stroke-linecap:butt;stroke-linejoin:miter;stroke-miterlimit:4;stroke-dasharray:none;stroke-opacity:1"
         d="m 84.594123,538.45151 c 0,0 -18.272107,-5.27815 -19.079446,-6.0136 -1.22945,-1.11998 -4.535255,-2.91285 -5.021663,-3.36825 -5.703562,-5.2437 -7.015357,-6.39387 -10.202545,-9.90097 -3.135852,-3.45062 -7.166815,-8.44819 -8.739865,-10.92142 -2.3651,-3.71853 -3.258551,-5.9818 -5.461786,-9.67804 -0.868507,-1.45704 -2.321146,-3.77266 -3.47558,-5.69912 -3.765485,-5.40128 -7.093369,-2.61071 -6.886357,3.61088 l 8.249527,51.55388 -124.318294,-45.9304 47.767621,-102.88411 276.807235,22.3528 0.3062,120.64386 z"
         id="path13852"
         inkscape:connector-curvature="0"
         sodipodi:nodetypes="cscasscccccccc" /></clipPath></defs><sodipodi:namedview
     pagecolor="#ffffff"
     bordercolor="#666666"
     borderopacity="1"
     objecttolerance="10"
     gridtolerance="10"
     guidetolerance="10"
     inkscape:pageopacity="0"
     inkscape:pageshadow="2"
     inkscape:window-width="3200"
     inkscape:window-height="1707"
     id="namedview4"
     showgrid="false"
     units="mm"
     inkscape:zoom="1.5404896"
     inkscape:cx="207.43361"
     inkscape:cy="264.81511"
     inkscape:window-x="0"
     inkscape:window-y="49"
     inkscape:window-maximized="1"
     inkscape:current-layer="g10"
     fit-margin-top="0"
     fit-margin-left="0"
     fit-margin-right="0"
     fit-margin-bottom="0" /><g
     id="g10"
     inkscape:groupmode="layer"
     inkscape:label="u"
     transform="matrix(1.25,0,0,-1.25,140.48563,746.62149)"><path
       sodipodi:nodetypes="cccccccccccccccccccccccccccccccccssc"
       inkscape:connector-curvature="0"
       id="path8155"
       style="fill:none;stroke:url(#linearGradient8163);stroke-width:16;stroke-linecap:round;stroke-linejoin:round;stroke-miterlimit:10;stroke-dasharray:none;stroke-opacity:1"
       d="m 50.956884,506.03684 4.925681,5.3994 4.332481,6.46332 5.13218,4.81923 5.53737,4.54688 5.97452,4.24599 6.44619,3.92913 6.95509,3.60735 7.504173,3.28975 8.096611,2.98347 8.7358,2.69385 9.42547,2.42452 9.22832,2.56727 10.97242,1.95483 11.83868,1.75597 12.77328,1.58094 13.7817,1.42911 14.86974,1.29957 16.04363,1.19142 17.31023,1.10378 18.67683,1.03595 20.15128,0.98753 21.74219,0.95851 23.45864,0.94943 25.31063,0.96156 27.30881,0.99714 29.46476,1.05988 31.7909,1.15552 34.3007,1.293 37.00863,1.48636 39.93033,1.75828 57.87713,1.91525 25.80285,1.75404 c 36.74266,0 66.52848,-29.78581 66.52848,-66.52847 0,-36.74267 -29.78581,-66.52848 -66.52848,-66.52848 -15.6002,0 -29.9463,5.36943 -41.29101,14.36101" /><g
       transform="scale(1,-1)"
       style="font-style:italic;font-variant:normal;font-weight:normal;font-stretch:normal;font-size:180px;line-height:125%;font-family:Junicode;-inkscape-font-specification:'Junicode Italic';letter-spacing:0px;word-spacing:0px;fill:#000000;fill-opacity:1;stroke:none;stroke-width:1px;stroke-linecap:butt;stroke-linejoin:miter;stroke-opacity:1"
       id="text8583" /><flowRoot
       xml:space="preserve"
       id="flowRoot8979"
       style="font-style:normal;font-weight:normal;font-size:10px;line-height:125%;font-family:sans-serif;letter-spacing:0px;word-spacing:0px;fill:#000000;fill-opacity:1;stroke:none;stroke-width:1px;stroke-linecap:butt;stroke-linejoin:miter;stroke-opacity:1"><flowRegion
         id="flowRegion8981"><rect
           id="rect8983"
           width="139.10506"
           height="10.320698"
           x="-45.770054"
           y="237.6214" /></flowRegion><flowPara
         id="flowPara8985" /></flowRoot><text
       xml:space="preserve"
       style="font-style:normal;font-weight:normal;font-size:8px;line-height:125%;font-family:sans-serif;letter-spacing:0px;word-spacing:0px;fill:#000000;fill-opacity:1;stroke:none;stroke-width:1px;stroke-linecap:butt;stroke-linejoin:miter;stroke-opacity:1"
       x="304.69263"
       y="-341.51114"
       id="text9047"
       sodipodi:linespacing="125%"
       transform="scale(1,-1)"><tspan
         sodipodi:role="line"
         id="tspan9049"
         x="304.69263"
         y="-341.51114" /></text>
<flowRoot
       xml:space="preserve"
       id="flowRoot9105"
       style="font-style:normal;font-weight:normal;font-size:10px;line-height:125%;font-family:sans-serif;letter-spacing:0px;word-spacing:0px;fill:#000000;fill-opacity:1;stroke:none;stroke-width:1px;stroke-linecap:butt;stroke-linejoin:miter;stroke-opacity:1"><flowRegion
         id="flowRegion9107"><rect
           id="rect9109"
           width="162.43881"
           height="113.52768"
           x="-58.334381"
           y="124.99117" /></flowRegion><flowPara
         id="flowPara9111" /></flowRoot><flowRoot
       xml:space="preserve"
       id="flowRoot9151"
       style="font-style:normal;font-weight:normal;font-size:10px;line-height:125%;font-family:sans-serif;letter-spacing:0px;word-spacing:0px;fill:#000000;fill-opacity:1;stroke:none;stroke-width:1px;stroke-linecap:butt;stroke-linejoin:miter;stroke-opacity:1"><flowRegion
         id="flowRegion9153"><rect
           id="rect9155"
           width="82.497276"
           height="12.691888"
           x="117.39996"
           y="231.42784" /></flowRegion><flowPara
         id="flowPara9157" /></flowRoot><text
       xml:space="preserve"
       style="font-style:normal;font-weight:normal;font-size:8px;line-height:125%;font-family:sans-serif;letter-spacing:0px;word-spacing:0px;fill:#000000;fill-opacity:1;stroke:none;stroke-width:1px;stroke-linecap:butt;stroke-linejoin:miter;stroke-opacity:1"
       x="184.62735"
       y="-623.5249"
       id="text9185"
       sodipodi:linespacing="125%"
       transform="scale(1,-1)"><tspan
         sodipodi:role="line"
         id="tspan9187"
         x="184.62735"
         y="-623.5249" /></text>
<text
       xml:space="preserve"
       style="font-style:normal;font-weight:normal;font-size:8px;line-height:125%;font-family:sans-serif;letter-spacing:0px;word-spacing:0px;fill:#000000;fill-opacity:1;stroke:none;stroke-width:1px;stroke-linecap:butt;stroke-linejoin:miter;stroke-opacity:1"
       x="312.26196"
       y="-389.40875"
       id="text8120"
       sodipodi:linespacing="125%"
       transform="scale(1,-1)"><tspan
         sodipodi:role="line"
         id="tspan8122"
         x="312.26196"
         y="-389.40875" /></text>
<g
       id="g8462"><g
         transform="matrix(1.2333107,0,0,0.99310326,1.7572119,3.5736297)"
         style="stroke:url(#linearGradient8184);stroke-width:9.60000038;stroke-linecap:round;stroke-linejoin:round;stroke-miterlimit:4;stroke-dasharray:none"
         id="g8173"><path
           style="fill:#000000;fill-opacity:1;fill-rule:evenodd;stroke:url(#linearGradient8456);stroke-width:9.60000038;stroke-linecap:round;stroke-linejoin:round;stroke-miterlimit:4;stroke-dasharray:none;stroke-opacity:1"
           d="m -81.228088,548.79724 c 0,0 5.734129,-21.84388 5.584434,-32.99891 -0.152747,-11.38244 -4.42494,-22.33281 -6.599778,-33.50659 -1.712011,-8.79588 -6.894029,-17.62438 -5.07676,-26.39912 0.913805,-4.41234 3.465739,-9.41208 7.615134,-11.16886 8.223833,-3.48182 18.541537,0.32494 26.399128,4.56908 9.375585,5.06406 14.423258,15.69241 21.830048,23.35307 4.158757,4.3013 12.691888,12.69189 12.691888,12.69189 0,0 -3.958685,-1.86557 -8.388767,-4.18693 -0.882881,-0.46263 5.72585,14.18432 6.696993,21.68783 0.458945,3.54602 1.014765,7.45607 -0.451274,10.7173 -1.339058,2.97877 -3.875531,6.04955 -7.04788,6.80605 -4.451982,1.06165 -14.435122,-0.49328 -20.863369,-8.61774 4.440618,1.10341 10.729458,2.82205 14.252733,-0.36741 3.568011,-3.22996 2.498084,-9.56332 1.802218,-14.32558 -1.655892,-11.33235 -10.655744,-27.88262 -13.863351,-31.43698 -3.074492,-3.40685 -6.289969,-6.55734 -10.466805,-8.1987 -3.544639,-1.39293 -8.083093,-2.08461 -11.4227,-0.25383 -2.430386,1.33234 -3.714989,4.40161 -4.315242,7.10745 -2.525472,11.38445 3.610935,23.11624 3.807567,34.77578 0.151665,8.99316 0.166455,18.18485 -2.030703,26.9068 -2.035673,8.08091 -10.153514,22.8454 -10.153514,22.8454 z"
           id="path8167"
           inkscape:connector-curvature="0"
           sodipodi:nodetypes="caaaaaacsaascaassaaaac" /><path
           style="fill:#000000;fill-opacity:1;fill-rule:evenodd;stroke:url(#linearGradient8458);stroke-width:9.60000038;stroke-linecap:round;stroke-linejoin:round;stroke-miterlimit:4;stroke-dasharray:none;stroke-opacity:1"
           d="m -86.051002,587.88825 c 0,0 5.655367,-4.03824 8.34839,-11.83578 1.647857,-4.7713 0.951412,-12.97131 0.78977,-16.59404 -0.263,-5.89438 1.147265,-10.96269 3.046227,-15.49229 1.175527,-2.80398 2.538325,-5.40153 3.807393,-7.8608 3.899037,-7.55577 2.80497,-26.12723 2.80497,-26.12723 0,0 4.161718,22.36688 6.451087,29.72452 2.289369,7.35764 7.369527,15.47702 7.751072,23.8172 0.461284,10.0832 -6.702736,29.5301 -6.702736,29.5301 0,0 2.202626,-22.64945 -0.812537,-28.25344 -3.015164,-5.60399 -6.550946,-14.47094 -6.550946,-14.47094 0,0 -2.012914,-0.7874 -2.882864,3.94083 -0.741671,4.03102 0.147661,10.04928 -1.327236,15.85323 -3.204892,12.61175 -14.72259,17.76864 -14.72259,17.76864 z"
           id="path8169"
           inkscape:connector-curvature="0"
           sodipodi:nodetypes="cssssczaczcssc" /><path
           sodipodi:nodetypes="cscsccacaacaaasaacacaaaaascaasc"
           inkscape:connector-curvature="0"
           id="path8171"
           d="m -40.272953,537.87819 c 0,0 -3.277515,-4.10932 -3.340475,-6.90191 -0.0043,-0.19088 -7.627851,-3.28974 -8.068581,1.25479 -1.302244,-2.36468 -0.245466,-6.66652 2.168214,-8.03207 2.29436,-1.29805 -4.292022,-4.48214 -5.423914,-5.87169 -1.4194,-1.79137 -2.672451,-3.52827 -3.818668,-5.69484 0,0 -1.342904,3.72508 -1.386647,5.67042 -0.106265,4.72581 2.745983,13.91261 2.745983,13.91261 0,0 -6.844179,-17.36638 -8.449794,-26.49678 -0.702428,-3.99438 -0.07708,-8.12192 -0.479797,-12.15756 -0.396612,-3.97444 -1.902868,-11.8305 -1.902868,-11.8305 0,0 4.14469,11.03706 7.19928,16.03778 4.713972,7.71734 9.874375,15.55021 16.947921,21.18436 3.253184,2.5912 7.624936,3.36042 11.239417,5.41786 2.225543,1.26682 4.753593,2.97029 6.401679,4.24729 6.486074,5.02567 11.987389,11.97344 14.769494,19.69266 2.5592121,7.10079 2.2309806,15.15544 1.09418,22.61723 -0.848616,5.57019 -1.669599,10.38973 -5.807478,15.87444 -3.95787,-1.3294 -15.16655,-6.43684 -22.598545,-4.49838 -4.42481,1.15411 -10.432422,8.90858 -10.432422,8.90858 0,0 2.153171,-6.61412 3.868201,-9.61189 1.17591,-2.05541 2.21887,-4.56784 4.337074,-5.62648 4.667257,-2.3326 10.591894,1.07239 15.651788,-0.20111 1.594584,-0.40133 3.521271,-0.87374 4.374857,-2.27915 2.755284,-4.53649 -0.29551,-10.62458 0.01767,-15.923 0.159446,-2.69752 3.416012,-6.95518 0.946076,-8.05129 -4.708756,-2.08965 -6.135571,7.18221 -6.135571,7.18221 0,0 2.112623,-9.1764 0.787206,-13.47664 -0.706214,-2.29127 -2.596297,-4.10655 -4.389078,-5.6986 -1.939057,-1.72194 -4.366492,-4.68739 -6.681439,-3.98541 -6.193778,1.87819 -3.633765,4.33707 -3.633765,4.33707 z"
           style="fill:#000000;fill-rule:evenodd;stroke:url(#linearGradient8460);stroke-width:9.60000038;stroke-linecap:round;stroke-linejoin:round;stroke-miterlimit:4;stroke-dasharray:none;stroke-opacity:1" /></g><path
         style="fill:#000000;fill-opacity:1;fill-rule:evenodd;stroke:none;stroke-width:2.4000001;stroke-linecap:butt;stroke-linejoin:miter;stroke-miterlimit:4;stroke-dasharray:none;stroke-opacity:1"
         d="m -98.422255,548.58596 c 0,0 7.071962,-21.69323 6.887342,-32.77133 -0.188385,-11.30394 -5.457326,-22.17879 -8.139577,-33.2755 -2.11144,-8.73522 -8.50248,-17.50283 -6.26122,-26.21705 1.127,-4.38191 4.27433,-9.34717 9.391824,-11.09184 10.142541,-3.4578 22.867475,0.3227 32.558326,4.53757 11.563009,5.02914 17.788358,15.58419 26.923231,23.19201 5.129039,4.27164 15.653041,12.60436 15.653041,12.60436 0,0 -4.882289,-1.8527 -10.345956,-4.15805 -1.088867,-0.45944 7.061752,14.08649 8.259473,21.53825 0.566022,3.52156 1.25152,7.40465 -0.556561,10.64339 -1.651475,2.95822 -4.779734,6.00782 -8.692226,6.75911 -5.490677,1.05432 -17.80299,-0.48988 -25.731015,-8.55831 5.476661,1.0958 13.232755,2.80259 17.578047,-0.36488 4.400466,-3.20768 3.080914,-9.49736 2.222695,-14.22678 -2.042229,-11.25419 -13.141843,-27.69032 -17.097819,-31.22016 -3.791803,-3.38336 -7.757486,-6.51212 -12.908822,-8.14216 -4.371641,-1.38332 -9.968965,-2.07023 -14.087738,-0.25208 -2.997421,1.32315 -4.581735,4.37126 -5.322034,7.05843 -3.114691,11.30594 4.453405,22.95682 4.695913,34.53594 0.18705,8.93114 0.205291,18.05944 -2.504487,26.72124 -2.510618,8.02517 -12.522437,22.68784 -12.522437,22.68784 z"
         id="path9008"
         inkscape:connector-curvature="0"
         sodipodi:nodetypes="caaaaaacsaascaassaaaac" /><path
         style="fill:#000000;fill-opacity:1;fill-rule:evenodd;stroke:none;stroke-width:2.4000001;stroke-linecap:round;stroke-linejoin:round;stroke-miterlimit:4;stroke-dasharray:none;stroke-opacity:1"
         d="m -104.37041,587.40737 c 0,0 6.974828,-4.01039 10.296162,-11.75416 2.032319,-4.73839 1.173386,-12.88185 0.974032,-16.47959 -0.324361,-5.85373 1.414934,-10.88708 3.756944,-15.38544 1.44979,-2.78465 3.130543,-5.36428 4.695698,-7.80659 4.808724,-7.50366 3.4594,-25.94704 3.4594,-25.94704 0,0 5.132691,22.21262 7.956194,29.51952 2.823503,7.3069 9.088916,15.37028 9.55948,23.65294 0.568906,10.01366 -8.266556,29.32644 -8.266556,29.32644 0,0 2.716522,-22.49325 -1.002111,-28.05859 -3.718634,-5.56534 -8.079351,-14.37113 -8.079351,-14.37113 0,0 -2.482548,-0.78197 -3.555467,3.91365 -0.914711,4.00322 0.182112,9.97997 -1.636894,15.74389 -3.952628,12.52477 -18.157531,17.6461 -18.157531,17.6461 z"
         id="path8925"
         inkscape:connector-curvature="0"
         sodipodi:nodetypes="cssssczaczcssc" /><path
         sodipodi:nodetypes="cscsccacaacaaasaacacaaaaascaasc"
         inkscape:connector-curvature="0"
         id="path8124"
         d="m -47.911851,537.74221 c 0,0 -4.042194,-4.08098 -4.119843,-6.85431 -0.0053,-0.18956 -9.40751,-3.26705 -9.951067,1.24614 -1.606071,-2.34837 -0.302736,-6.62054 2.674081,-7.97668 2.829659,-1.28909 -5.293396,-4.45122 -6.689371,-5.83119 -1.750561,-1.77902 -3.295962,-3.50394 -4.709604,-5.65556 0,0 -1.656217,3.69938 -1.710166,5.63131 -0.131058,4.69322 3.38665,13.81666 3.38665,13.81666 0,0 -8.440999,-17.24661 -10.421221,-26.31404 -0.866312,-3.96683 -0.09506,-8.06591 -0.591739,-12.07371 -0.489146,-3.94703 -2.346827,-11.74891 -2.346827,-11.74891 0,0 5.11169,10.96094 8.878949,15.92717 5.813792,7.66411 12.178172,15.44296 20.902051,21.03826 4.012187,2.57332 9.403915,3.33724 13.861693,5.38049 2.744786,1.25808 5.862657,2.9498 7.895259,4.218 7.999344,4.99101 14.784175,11.89086 18.215375,19.55684 3.1563033,7.05182 2.7514918,15.05092 1.349464,22.46125 -1.046608,5.53177 -2.059135,10.31807 -7.162425,15.76496 -4.881283,-1.32024 -18.705068,-6.39245 -27.871027,-4.46736 -5.457165,1.14615 -12.866417,8.84714 -12.866417,8.84714 0,0 2.655529,-6.5685 4.770694,-9.5456 1.450262,-2.04123 2.736556,-4.53634 5.348959,-5.58768 5.756178,-2.31651 13.063096,1.065 19.303517,-0.19972 1.966618,-0.39856 4.342821,-0.86771 5.395558,-2.26343 3.398121,-4.5052 -0.364456,-10.5513 0.02179,-15.81318 0.196646,-2.67892 4.213004,-6.90721 1.166805,-7.99577 -5.807359,-2.07523 -7.567065,7.13268 -7.567065,7.13268 0,0 2.605521,-9.11311 0.97087,-13.38369 -0.870982,-2.27547 -3.202041,-4.07823 -5.413097,-5.6593 -2.39146,-1.71007 -5.385241,-4.65506 -8.24029,-3.95793 -7.638852,1.86524 -4.481561,4.30716 -4.481561,4.30716 z"
         style="fill:#000000;fill-rule:evenodd;stroke:none;stroke-width:0.80000001px;stroke-linecap:butt;stroke-linejoin:miter;stroke-opacity:1" /></g><path
       sodipodi:nodetypes="casc"
       inkscape:connector-curvature="0"
       id="path9217"
       d="m 51.108697,498.27869 c 0,0 2.272013,7.73514 3.997942,11.35923 1.547411,3.24924 3.342561,6.39559 5.647889,9.20162 1.209726,1.47247 3.524234,2.61306 5.279365,4.29499"
       style="fill:none;fill-rule:evenodd;stroke:#ff4300;stroke-width:16;stroke-linecap:butt;stroke-linejoin:miter;stroke-miterlimit:4;stroke-dasharray:none;stroke-opacity:1" /><path
       sodipodi:nodetypes="caac"
       inkscape:connector-curvature="0"
       id="path9199"
       d="m 50.7914,498.97674 c 0,0 2.207613,7.37205 3.934482,10.7881 1.638376,3.24099 3.705332,6.28355 6.028646,9.0747 2.598382,3.12161 8.757402,8.47184 8.757402,8.47184"
       style="fill:#000000;fill-opacity:1;fill-rule:evenodd;stroke:#ff4300;stroke-width:12.80000019;stroke-linecap:butt;stroke-linejoin:miter;stroke-miterlimit:4;stroke-dasharray:none;stroke-opacity:1" /><path
       style="fill:none;fill-rule:evenodd;stroke:#000000;stroke-width:8;stroke-linecap:butt;stroke-linejoin:miter;stroke-miterlimit:4;stroke-dasharray:none;stroke-opacity:1"
       d="m 50.7914,498.97674 c 0,0 2.207613,7.37205 3.934482,10.7881 1.638376,3.24099 3.723318,6.26867 6.028646,9.0747 1.209726,1.47247 3.004919,3.4894 4.76005,5.17133"
       id="path9197"
       inkscape:connector-curvature="0"
       sodipodi:nodetypes="casc" /><g
       id="g13836"
       clip-path="url(#clipPath13850)"><g
         clip-path="none"
         id="g8180"><text
           clip-path="none"
           transform="scale(1,-1)"
           sodipodi:linespacing="125%"
           id="text9113"
           y="-449.40323"
           x="-21.050447"
           style="font-style:italic;font-variant:normal;font-weight:normal;font-stretch:normal;font-size:180px;line-height:125%;font-family:Junicode;-inkscape-font-specification:'Junicode Italic';letter-spacing:0px;word-spacing:0px;opacity:1;fill:#000000;fill-opacity:1;stroke:url(#linearGradient9125);stroke-width:9.60000038;stroke-linecap:butt;stroke-linejoin:round;stroke-miterlimit:4;stroke-dasharray:none;stroke-opacity:1"
           xml:space="preserve"><tspan
             style="fill:#000000;fill-opacity:1;stroke:url(#linearGradient9125);stroke-width:9.60000038;stroke-linejoin:round;stroke-miterlimit:4;stroke-dasharray:none"
             y="-449.40323"
             x="-21.050447"
             id="tspan9115"
             sodipodi:role="line"><tspan
   id="tspan9117"
   style="fill:#000000;fill-opacity:0;stroke:url(#linearGradient9125);stroke-width:9.60000038;stroke-linejoin:round;stroke-miterlimit:4;stroke-dasharray:none">u</tspan>rn</tspan></text>
<text
           xml:space="preserve"
           style="font-style:italic;font-variant:normal;font-weight:normal;font-stretch:normal;font-size:180px;line-height:125%;font-family:Junicode;-inkscape-font-specification:'Junicode Italic';letter-spacing:0px;word-spacing:0px;opacity:1;fill:#000000;fill-opacity:1;stroke:none;stroke-width:3.20000005;stroke-linecap:butt;stroke-linejoin:miter;stroke-miterlimit:4;stroke-dasharray:none;stroke-opacity:1"
           x="-21.050463"
           y="-449.40323"
           id="text8663"
           sodipodi:linespacing="125%"
           transform="scale(1,-1)"><tspan
             sodipodi:role="line"
             id="tspan8665"
             x="-21.050463"
             y="-449.40323"
             style="fill:#000000;fill-opacity:1">urn</tspan></text>
<path
           sodipodi:nodetypes="csscscccssccsssccsscsscscssccsssccscc"
           d="m 46.449537,467.24503 c -0.703125,-2.46094 -1.054687,-4.27735 -1.054687,-5.44922 0,-2.28516 0.996094,-3.42774 2.988281,-3.42774 1.992187,0 5.654297,2.72461 10.986328,8.17383 0.175781,0.17578 0.410156,0.26367 0.703125,0.26367 0.761719,0 1.464844,-0.35156 2.109375,-1.05468 0.761719,-0.82031 1.113281,-1.46485 1.054688,-1.9336 0,-0.23437 -0.08789,-0.46875 -0.263672,-0.70312 -9.609375,-10.72266 -17.929688,-16.08399 -24.960938,-16.08399 -3.398437,0 -5.097656,2.63672 -5.097656,7.91016 0,2.10937 0.322266,4.27734 0.966797,6.5039 l 7.207031,25.22461 C 27.433954,468.25477 26.417796,466.32789 17.841543,457.40155 12.767241,452.12011 5.864678,447.56092 -1.1871815,447.03018 c -4.9079941,-0.36939 -7.3828125,2.90039 -7.3828125,8.70117 0,2.22657 0.5859375,5.39063 1.7578125,9.49219 l 11.1621094,39.11133 c 0.3515625,1.23047 0.5273438,2.43164 0.5273438,3.60352 0,2.63671 -0.8496094,3.95507 -2.5488282,3.95507 -1.64062498,0 -3.16406248,-0.79101 -4.5703125,-2.37304 -1.5234375,-1.69922 -3.1640625,-3.42774 -4.921875,-5.18555 -0.1757812,-0.17578 -0.4101562,-0.26367 -0.703125,-0.26367 -1.0546875,0 -1.9628905,0.64453 -2.724609,1.93359 -0.234375,0.41016 -0.351563,0.76172 -0.351563,1.05469 0,0.23437 0.05859,0.41015 0.175781,0.52734 9.0234378,11.13281 16.8750005,16.69922 23.554688,16.69922 3.222656,0 4.833984,-2.40234 4.833984,-7.20703 0,-2.75391 -0.732422,-6.67969 -2.197265,-11.77734 L 7.7776623,478.7587 c -2.4023437,-8.32031 -3.6035156,-13.79883 -3.6035156,-16.43555 0,-2.63672 0.8203125,-3.95508 2.4609375,-3.95508 2.5781252,0 3.1779121,-0.50252 9.5680728,6.95874 6.554674,7.65336 14.932715,20.19947 22.104626,31.62525 3.398437,5.85937 9.284332,14.29687 12.975739,25.3125 0.46875,1.34765 2.226562,2.02148 5.273437,2.02148 4.101563,0 5.917969,-0.76172 5.449219,-2.28515 z"
           style="font-style:italic;font-variant:normal;font-weight:normal;font-stretch:normal;font-size:medium;line-height:125%;font-family:Junicode;-inkscape-font-specification:'Junicode Italic';letter-spacing:0px;word-spacing:0px;fill:#000000;fill-opacity:1;stroke:none;stroke-width:3.20000005;stroke-linecap:butt;stroke-linejoin:miter;stroke-miterlimit:4;stroke-dasharray:none;stroke-opacity:1"
           id="path13807"
           inkscape:connector-curvature="0" /></g><path
         sodipodi:nodetypes="cac"
         inkscape:connector-curvature="0"
         id="path9219"
         d="m 62.68896,528.25495 c 0,0 -6.077757,-5.3229 -8.882369,-8.22373 -4.764942,-4.92841 -11.982903,-13.57892 -13.455028,-15.55339"
         style="fill:none;fill-rule:evenodd;stroke:url(#linearGradient9227);stroke-width:4;stroke-linecap:butt;stroke-linejoin:miter;stroke-miterlimit:4;stroke-dasharray:none;stroke-opacity:1" /></g><text
       xml:space="preserve"
       style="font-style:normal;font-weight:normal;font-size:20px;line-height:125%;font-family:sans-serif;letter-spacing:0px;word-spacing:0px;fill:#000000;fill-opacity:1;stroke:url(#linearGradient8411);stroke-width:1px;stroke-linecap:butt;stroke-linejoin:miter;stroke-opacity:1"
       x="459.78064"
       y="-527.47052"
       id="text8383"
       sodipodi:linespacing="125%"
       transform="matrix(0.99911839,0.04198135,0.04198135,-0.99911839,0,0)"><tspan
         sodipodi:role="line"
         id="tspan8385"
         x="459.78064"
         y="-527.47052"
         style="font-style:italic;font-variant:normal;font-weight:normal;font-stretch:normal;font-size:20px;font-family:Junicode;-inkscape-font-specification:'Junicode Italic';fill:#000000;fill-opacity:1;stroke:url(#linearGradient8411);stroke-opacity:1">Cp (forsterite)</tspan></text>
<text
       transform="matrix(0.99911839,0.04198135,0.04198135,-0.99911839,0,0)"
       sodipodi:linespacing="125%"
       id="text8413"
       y="-527.47052"
       x="459.78064"
       style="font-style:normal;font-weight:normal;font-size:20px;line-height:125%;font-family:sans-serif;letter-spacing:0px;word-spacing:0px;fill:#000000;fill-opacity:1;stroke:none;stroke-width:1px;stroke-linecap:butt;stroke-linejoin:miter;stroke-opacity:1"
       xml:space="preserve"><tspan
         style="font-style:italic;font-variant:normal;font-weight:normal;font-stretch:normal;font-size:20px;font-family:Junicode;-inkscape-font-specification:'Junicode Italic';fill:#000000;fill-opacity:1;stroke:none;stroke-opacity:1"
         y="-527.47052"
         x="459.78064"
         id="tspan8415"
         sodipodi:role="line">Cp (forsterite)</tspan></text>
<g
       id="g8231"
       transform="translate(397.60421,-158.01016)"><text
         transform="scale(1,-1)"
         sodipodi:linespacing="125%"
         id="text8213"
         y="-607.41339"
         x="-21.050447"
         style="font-style:italic;font-variant:normal;font-weight:normal;font-stretch:normal;font-size:180px;line-height:125%;font-family:Junicode;-inkscape-font-specification:'Junicode Italic';letter-spacing:0px;word-spacing:0px;opacity:1;fill:#000000;fill-opacity:1;stroke:url(#linearGradient8225);stroke-width:9.60000038;stroke-linecap:butt;stroke-linejoin:round;stroke-miterlimit:4;stroke-dasharray:none;stroke-opacity:1"
         xml:space="preserve"><tspan
           style="fill:#000000;fill-opacity:1;stroke:url(#linearGradient8225);stroke-width:9.60000038;stroke-linejoin:round;stroke-miterlimit:4;stroke-dasharray:none"
           y="-607.41339"
           x="-21.050447"
           id="tspan8215"
           sodipodi:role="line">an</tspan></text>
<text
         xml:space="preserve"
         style="font-style:italic;font-variant:normal;font-weight:normal;font-stretch:normal;font-size:180px;line-height:125%;font-family:Junicode;-inkscape-font-specification:'Junicode Italic';letter-spacing:0px;word-spacing:0px;opacity:1;fill:#000000;fill-opacity:1;stroke:none;stroke-width:9.60000038;stroke-linecap:butt;stroke-linejoin:round;stroke-miterlimit:4;stroke-dasharray:none;stroke-opacity:1"
         x="-21.050447"
         y="-607.41339"
         id="text8227"
         sodipodi:linespacing="125%"
         transform="scale(1,-1)"><tspan
           sodipodi:role="line"
           id="tspan8229"
           x="-21.050447"
           y="-607.41339"
           style="fill:#000000;fill-opacity:1;stroke:none;stroke-width:9.60000038;stroke-linejoin:round;stroke-miterlimit:4;stroke-dasharray:none">an</tspan></text>
</g><circle
       style="opacity:1;fill:#000000;fill-opacity:1;stroke:none;stroke-width:16;stroke-linecap:round;stroke-linejoin:round;stroke-miterlimit:10;stroke-dasharray:none;stroke-dashoffset:0;stroke-opacity:1"
       id="path8165"
       cx="623.8158"
       cy="-513.15399"
       transform="scale(1,-1)"
       r="56.67918" /><circle
       r="56.412292"
       transform="scale(1,-1)"
       cy="-513.15399"
       cx="623.8158"
       id="circle8167"
       style="opacity:1;fill:#ff8100;fill-opacity:1;stroke:none;stroke-width:16;stroke-linecap:round;stroke-linejoin:round;stroke-miterlimit:10;stroke-dasharray:none;stroke-dashoffset:0;stroke-opacity:1" /><circle
       r="53.031639"
       transform="scale(1,-1)"
       cy="-513.15399"
       cx="623.8158"
       id="circle8169"
       style="opacity:1;fill:#f39b00;fill-opacity:1;stroke:none;stroke-width:16;stroke-linecap:round;stroke-linejoin:round;stroke-miterlimit:10;stroke-dasharray:none;stroke-dashoffset:0;stroke-opacity:1" /><circle
       style="opacity:1;fill:#ffa800;fill-opacity:1;stroke:none;stroke-width:16;stroke-linecap:round;stroke-linejoin:round;stroke-miterlimit:10;stroke-dasharray:none;stroke-dashoffset:0;stroke-opacity:1"
       id="circle8171"
       cx="623.8158"
       cy="-513.15399"
       transform="scale(1,-1)"
       r="52.053036" /><circle
       style="opacity:1;fill:#fed246;fill-opacity:1;stroke:none;stroke-width:16;stroke-linecap:round;stroke-linejoin:round;stroke-miterlimit:10;stroke-dasharray:none;stroke-dashoffset:0;stroke-opacity:1"
       id="circle8173"
       cx="623.8158"
       cy="-513.15399"
       transform="scale(1,-1)"
       r="50.718575" /><circle
       r="30.968489"
       transform="scale(1,-1)"
       cy="-513.15399"
       cx="623.8158"
       id="circle8175"
       style="opacity:1;fill:#fbff82;fill-opacity:1;stroke:none;stroke-width:16;stroke-linecap:round;stroke-linejoin:round;stroke-miterlimit:10;stroke-dasharray:none;stroke-dashoffset:0;stroke-opacity:1" /><g
       clip-path="url(#clipPath8222)"
       id="g8155"
       transform="translate(-7.3098029,-111.89621)" /><text
       xml:space="preserve"
       style="font-style:italic;font-variant:normal;font-weight:normal;font-stretch:normal;font-size:55px;line-height:125%;font-family:Junicode;-inkscape-font-specification:'Junicode Italic';text-align:center;letter-spacing:0px;word-spacing:0px;text-anchor:middle;fill:#000000;fill-opacity:1;stroke:none;stroke-width:1px;stroke-linecap:butt;stroke-linejoin:miter;stroke-opacity:1"
       x="287.16379"
       y="-390.14722"
       id="text8255"
       sodipodi:linespacing="125%"
       transform="scale(1,-1)"><tspan
         sodipodi:role="line"
         id="tspan8257"
         x="294.68332"
         y="-390.14722">a thermodynamic and geophysics toolkit </tspan><tspan
         sodipodi:role="line"
         x="287.16379"
         y="-321.39722"
         id="tspan8259">for the Earth and planetary sciences</tspan></text>
<g
       id="g8182"
       transform="matrix(0.25224609,0,0,0.25224609,575.21837,388.34684)"><path
         sodipodi:nodetypes="aaaaaaaaaaaaaaaaaaaaaaaaaaaaacaacazzzzzzaacacaacaaaaaaaaa"
         inkscape:connector-curvature="0"
         id="path8174"
         d="m 133.767,589.67157 c -1.20385,4.2706 -2.15501,8.81079 -4.67384,12.46357 -2.75021,3.98832 -6.22899,8.34261 -10.90562,9.60733 -4.76828,1.2895 -10.51065,-1.9e-4 -14.54083,-2.85623 -2.78561,-1.97406 -4.266739,-5.54229 -5.193154,-8.82836 -1.315401,-4.66584 -0.660852,-9.70974 -0.259656,-14.54083 1.726655,-20.79191 7.88268,-40.97831 11.42494,-61.53888 2.90154,-16.84158 5.93733,-33.67457 8.04938,-50.63325 1.90103,-15.26435 1.27563,-30.84895 4.15453,-45.95941 2.75253,-14.44719 5.28136,-29.49013 12.46357,-42.32421 5.23732,-9.3587 13.06248,-17.3349 21.55159,-23.88851 8.488,-6.55275 18.17103,-12.15374 28.56234,-14.80049 16.19127,-4.12405 33.97163,-5.35036 50.11394,-1.03863 12.3045,3.28663 23.78986,10.65042 32.71687,19.73398 9.67721,9.84691 15.01385,23.285 20.77262,35.83277 3.40245,7.4136 6.79468,15.04952 8.04939,23.10954 0.50608,3.25098 0.0282,6.58947 -0.25967,9.86699 -0.15314,1.7437 -0.19938,3.54147 -0.77896,5.19315 -1.02731,2.92763 -2.94538,5.4728 -4.67384,8.04939 -7.90831,11.7888 -15.09,24.63219 -25.96577,33.7555 -1.72025,1.44306 -3.83097,2.43979 -5.97213,3.1159 -9.49016,2.99667 -19.70881,2.8049 -29.60098,3.89486 -7.7734,0.85651 -15.55293,1.82156 -23.3692,2.07726 -3.72078,0.12172 -8.3529,2.17951 -11.16528,-0.25965 -2.38638,-2.0697 -1.84755,-6.20211 -1.55794,-9.34768 0.4644,-5.04403 2.16006,-10.22431 5.19315,-14.28118 3.9286,-5.25465 10.08398,-8.53441 15.83912,-11.68459 4.8786,-2.6704 10.18977,-4.59991 15.57947,-5.97213 2.53857,-0.64632 5.44127,0.12191 7.78972,-1.03863 1.09736,-0.54229 2.59658,-2.59658 2.59658,-2.59658 0,0 -0.88912,-2.57545 -0.77897,-3.89486 0.16182,-1.93829 1.55487,-3.57926 2.07726,-5.45282 0.2599,-0.93213 0.51932,-2.85623 0.51932,-2.85623 0,0 -3.65195,-2.39874 -5.45282,-3.63521 -5.06808,-3.47971 -11.45579,-7.0503 -15.06014,-10.64596 -3.60435,-3.59566 -5.59128,-7.66656 -7.01076,-9.867 -1.41948,-2.20044 -0.77089,-2.51469 -1.8176,-3.11589 -1.04671,-0.6012 -2.54053,-0.38399 -3.63521,0 -1.09468,0.38399 -1.99831,-0.10856 -2.59658,2.07726 -0.59827,2.18582 1.26835,6.03747 3.63521,9.60734 2.36686,3.56987 7.17099,7.40712 11.16528,10.64597 2.85305,2.31345 5.84846,4.50055 9.08802,6.23178 1.23325,0.65905 3.89487,1.55794 3.89487,1.55794 0,0 -0.35918,1.90189 -0.51932,2.85624 -0.18839,1.12272 -0.51931,3.37555 -0.51931,3.37555 0,0 -6.27301,0.42622 -9.34768,1.03863 -2.7401,0.54577 -5.45387,1.30287 -8.04939,2.33692 -2.9848,1.18914 -8.56871,4.41418 -8.56871,4.41418 0,0 -1.07971,-5.99842 -2.59657,-8.5687 -2.33314,-3.95343 -5.65237,-7.53646 -9.60734,-9.867 -3.40087,-2.00402 -7.47791,-3.06133 -11.42494,-3.11589 -3.29551,-0.0455 -6.55072,1.10421 -9.60733,2.33692 -3.34546,1.3492 -6.63948,3.06992 -9.34767,5.45281 -2.1315,1.87547 -4.106,4.12836 -5.19316,6.7511 -5.6155,13.54725 -3.42544,29.13695 -5.71247,43.6225 -3.48669,22.084 -8.05039,43.9847 -12.20391,65.95305 -2.3746,12.55946 -3.80243,25.34786 -7.27042,37.65037 z"
         style="fill:#000000;fill-rule:evenodd;stroke:#000000;stroke-width:0.80000001px;stroke-linecap:butt;stroke-linejoin:miter;stroke-opacity:1" /><path
         sodipodi:nodetypes="caaaasssaaaacaaaac"
         inkscape:connector-curvature="0"
         id="path8176"
         d="m 194.00759,496.97377 c 0,0 0.28255,9.6947 -1.03863,14.28117 -0.86813,3.01372 -2.03209,6.269 -4.41418,8.30905 -3.40959,2.92001 -8.23418,4.42618 -12.72323,4.41418 -4.68103,-0.0125 -9.78781,-1.5152 -13.24255,-4.67384 -2.45827,-2.24758 -3.60427,-5.80292 -4.15452,-9.08802 -1.8242,-10.89083 0.72774,-22.5878 1.77354,-33.80801 0.98841,-10.60453 0.29887,-20.75547 4.45825,-30.32744 1.56408,-3.59942 4.44216,-6.77995 7.78973,-8.82836 3.27681,-2.00511 7.33718,-3.17814 11.16528,-2.85624 4.24723,0.35714 8.66708,2.18299 11.6846,5.19316 2.5509,2.54468 3.6619,6.34327 4.41418,9.86699 0.32527,1.52361 0,4.67384 0,4.67384 0,0 -6.08028,5.08804 -8.30905,8.30904 -2.86536,4.14101 -5.3665,8.80107 -6.23178,13.76187 -0.74599,4.27688 -0.36594,8.87491 1.03863,12.98288 0.86986,2.54411 2.26581,5.13442 4.41418,6.7511 0.94066,0.70786 3.37555,1.03863 3.37555,1.03863 z"
         style="fill:#000000;fill-rule:evenodd;stroke:#000000;stroke-width:0.80000001px;stroke-linecap:butt;stroke-linejoin:miter;stroke-opacity:1" /><path
         sodipodi:nodetypes="caaaaaaaacac"
         inkscape:connector-curvature="0"
         id="path8178"
         d="m 201.53766,497.49309 c 0,0 -1.43844,10.20622 -2.07726,15.3198 -0.37797,3.02554 -1.30092,6.05026 -1.03863,9.08802 0.26387,3.05606 0.92757,6.25474 2.59658,8.82836 2.10452,3.24518 5.25315,6.05425 8.82836,7.53007 3.12938,1.29179 6.80763,1.44673 10.12665,0.77898 3.71901,-0.74823 7.49227,-2.46352 10.12665,-5.19316 2.1242,-2.20101 3.02304,-5.37704 3.89487,-8.30904 1.59434,-5.36185 1.57163,-11.07683 2.33692,-16.6181 0.70502,-5.10487 2.07725,-15.3198 2.07725,-15.3198 0,0 -13.63084,2.43118 -20.51295,3.11589 -5.43217,0.54045 -16.35844,0.77898 -16.35844,0.77898 z"
         style="fill:#000000;fill-rule:evenodd;stroke:#000000;stroke-width:0.80000001px;stroke-linecap:butt;stroke-linejoin:miter;stroke-opacity:1" /><path
         sodipodi:nodetypes="caaaaaaaaaaaacaaac"
         inkscape:connector-curvature="0"
         id="path8180"
         d="m 245.41981,492.81925 c 0,0 -3.2754,17.75966 -3.37555,26.74474 -0.18718,16.79306 3.30786,33.426 5.19316,50.11394 1.8403,16.28958 4.22086,32.51625 5.97212,48.81564 0.50144,4.66697 -0.50843,9.68934 1.2983,14.02152 1.34794,3.23209 3.86334,6.06843 6.75109,8.04939 2.86651,1.96639 6.39088,3.36186 9.86699,3.37555 3.55811,0.014 7.26452,-1.26165 10.12665,-3.37555 2.39565,-1.76936 4.11498,-4.49422 5.19316,-7.27042 1.04159,-2.68198 0.90003,-5.6949 1.03863,-8.5687 0.68819,-14.26878 -0.43187,-28.57104 -1.03863,-42.84352 -0.54509,-12.82186 -1.70633,-25.6114 -2.33692,-38.42934 -0.56603,-11.50571 -1.74571,-23.02355 -1.29829,-34.53448 0.64299,-16.54237 5.71247,-49.33496 5.71247,-49.33496 0,0 -11.38945,16.70219 -18.17603,24.14817 -1.7335,1.90193 -3.47843,3.9159 -5.71248,5.19315 -2.28156,1.30442 -4.96344,1.77176 -7.53007,2.33692 -3.83741,0.84498 -11.6846,1.55795 -11.6846,1.55795 z"
         style="fill:#000000;fill-rule:evenodd;stroke:#000000;stroke-width:0.80000001px;stroke-linecap:butt;stroke-linejoin:miter;stroke-opacity:1" /></g><path
       d="m 51.049746,507.62694 4.40862,5.2233 4.75668,5.04932 5.13218,4.81923 5.53737,4.54688 5.97452,4.24599 6.44619,3.92913 6.95509,3.60735 7.504173,3.28975 8.096611,2.98347 8.7358,2.69385 9.42547,2.42452 9.22832,2.56727 10.97242,1.95483 11.83868,1.75597 12.77328,1.58094 13.7817,1.42911 14.86974,1.29957 16.04363,1.19142 17.31023,1.10378 18.67683,1.03595 20.15128,0.98753 21.74219,0.95851 23.45864,0.94943 25.31063,0.96156 27.30881,0.99714 29.46476,1.05988 31.7909,1.15552 34.3007,1.293 37.00863,1.48636 39.93033,1.75828 57.87713,1.91525 25.80285,1.75404 c 36.74266,0 66.52848,-29.78581 66.52848,-66.52847 0,-36.74267 -29.78581,-66.52848 -66.52848,-66.52848 -15.6002,0 -29.9463,5.36943 -41.29101,14.36101"
       style="fill:none;stroke:#000000;stroke-width:8;stroke-linecap:round;stroke-linejoin:round;stroke-miterlimit:10;stroke-dasharray:none;stroke-opacity:1"
       id="path9195"
       inkscape:connector-curvature="0"
       sodipodi:nodetypes="cccccccccccccccccccccccccccccccccssc" /><path
       d="m 0.39892707,453.29626 2.20125753,0.28331 1.9855296,0.40385 1.8933056,0.54511 2.2142044,0.87108 1.9036408,0.97781 2.140867,1.37767 2.407604,1.91871 2.707596,2.62139 3.045003,3.48409 3.424406,4.47044 5.23864,7.56385 13.291638,19.56758 6.160072,8.08816 4.527498,5.37007 4.896163,5.25274 5.294884,5.06313 5.726051,4.81569 6.192359,4.52584 6.69663,4.2084 3.550115,1.98032 3.691853,1.89667 3.839229,1.81309 3.992479,1.73014 4.151858,1.64835 4.31762,1.56818 4.48995,1.48995 4.66921,1.41409 4.8556,1.34083 5.04944,1.2703 5.25102,1.20278 5.46064,1.13833 5.67862,1.07703 5.9053,1.01898 6.14104,0.96415 6.38621,0.91255 6.64118,0.86416 6.90623,0.81902 7.18197,0.77699 15.23547,1.44021 16.47615,1.30838 17.8179,1.1996 19.26889,1.11291 20.83798,1.04768 22.53492,1.00365 24.37005,0.98105 40.32606,1.47856 153.70978,5.41925 42.1557,1.70465 22.34821,0.98195 23.24038,1.09271 24.16812,1.22799"
       style="fill:none;stroke:url(#linearGradient13796);stroke-width:1.68041587;stroke-linecap:square;stroke-linejoin:round;stroke-miterlimit:10;stroke-dasharray:none;stroke-opacity:1"
       id="path8687"
       inkscape:connector-curvature="0"
       sodipodi:nodetypes="cccccccccccccccccccccccccccccccccccccccccccccccccccc" /><g
       id="g8442"><g
         id="g8435"><path
           sodipodi:nodetypes="cacacacaaaaaacaaccaaac"
           inkscape:connector-curvature="0"
           id="path8395"
           d="m 222.10493,457.64888 c 0,-1.64785 0.49924,-4.60663 0,-6.82678 -0.36193,-1.60952 -2.11866,-4.47271 -2.11866,-4.47271 0,0 12.07616,0.90242 18.12627,0.94163 6.04654,0.0391 18.12626,-0.70622 18.12626,-0.70622 0,0 1.24697,4.3967 1.88323,6.59137 0.77434,2.67095 2.35408,8.0038 2.35408,8.0038 0,0 -3.24334,-5.95552 -6.12056,-7.29759 -0.99557,-0.46439 -2.23819,-0.29755 -3.29567,0 -1.59343,0.44833 -3.1692,1.32488 -4.23731,2.58946 -0.81801,0.96847 -1.38466,2.2637 -1.41245,3.5311 -0.0729,3.32464 1.86674,6.41347 3.29569,9.41623 1.02937,2.16311 2.29493,4.23029 3.76649,6.12057 2.42023,3.10888 8.23922,8.47461 8.23922,8.47461 0,0 -6.2305,-3.0575 -8.94544,-5.17893 -2.66734,-2.08425 -4.80005,-4.77934 -7.06218,-7.29759 -1.22866,-1.36776 -3.53109,-4.23731 -3.53109,-4.23731 l -0.70621,9.41624 c 0,0 -1.05892,-9.74239 -3.06029,-14.12435 -1.30398,-2.85506 -2.99433,-5.8595 -5.64974,-7.533 -1.69249,-1.06664 -3.97042,-1.75676 -5.88515,-1.17703 -1.69936,0.51453 -3.76649,3.7665 -3.76649,3.7665 z"
           style="fill:#000000;fill-rule:evenodd;stroke:url(#linearGradient8420);stroke-width:9.60000038;stroke-linecap:round;stroke-linejoin:round;stroke-miterlimit:4;stroke-dasharray:none;stroke-opacity:1" /><path
           sodipodi:nodetypes="caaacacaaacacacaaaaacssccaaaaascsc"
           inkscape:connector-curvature="0"
           id="path8397"
           d="m 242.95855,473.30684 c 0,0 2.22934,6.33194 2.57764,9.63982 0.28968,2.75111 -0.59612,5.52682 -0.42696,8.28795 0.2574,4.20096 2.09123,8.22834 2.18414,12.43614 0.0401,1.81962 -0.70621,5.41434 -0.70621,5.41434 0,0 2.23895,-5.34756 3.06026,-8.12151 0.36486,-1.23231 0.82392,-3.76649 0.82392,-3.76649 0,0 1.24572,2.84587 2.11866,4.1196 0.53418,0.77941 1.40098,1.30611 1.88325,2.11865 0.82976,1.39804 1.44541,2.97734 1.64785,4.59042 0.20612,1.64241 -0.47081,4.94352 -0.47081,4.94352 0,0 1.62305,-2.16232 2.58946,-1.76554 1.70119,0.69846 0.51979,3.65627 1.05932,5.41433 1.25379,-1.16361 1.78682,3.60997 2.35407,5.53204 0.84532,2.86433 0.55658,6.00442 1.53013,8.82772 1.26095,-1.18715 2.06894,3.07606 2.58948,4.82584 1.04424,3.51023 0.78454,7.28746 0.94161,10.94636 0.0623,1.45034 0.0962,2.90653 0,4.35502 -0.11796,1.77726 0.003,3.66297 -0.70621,5.29663 -0.78867,1.81538 -2.88271,2.8194 -3.76651,4.59042 -0.66708,1.3368 -1.05932,4.355 -1.05932,4.355 0,0 2.154,-3.13491 4.96165,-5.55343 1.436,-1.23699 3.719,-1.54908 4.5723,-2.68577 1.2437,-1.65676 2.58947,-5.64975 2.58947,-5.64975 l 3.17797,3.5311 c 0,0 -1.34946,-3.8958 -1.88324,-5.88515 -0.81171,-3.02511 -1.23471,-6.14388 -2.00096,-9.18084 -0.93872,-3.72054 -2.05514,-7.39488 -3.17797,-11.06408 -0.96576,-3.15589 -2.08452,-6.26342 -3.06029,-9.41623 -1.2333,-3.98492 -2.1754,-8.06073 -3.53108,-12.00571 -1.56275,-4.54753 -3.47847,-8.96656 -5.29664,-13.41814 -1.03321,-2.52971 -2.3967,-8.47344 3.16294,-5.11161 -1.37469,-3.02529 -6.43042,-5.75822 -8.05526,-6.47449 -4.09084,-1.80336 -9.68266,-9.12616 -9.68266,-9.12616 z"
           style="fill:#000000;fill-rule:evenodd;stroke:url(#linearGradient8422);stroke-width:9.60000038;stroke-linecap:round;stroke-linejoin:round;stroke-miterlimit:4;stroke-dasharray:none;stroke-opacity:1" /><path
           sodipodi:nodetypes="acaaaacccacaaacaaaacaaaaaacaacacaaaaacacacacaasscaacaaacaaaaaacacacaaaaacaa"
           inkscape:connector-curvature="0"
           id="path8399"
           d="m 280.72102,508.49656 c -1.01478,4.34723 -2.94257,13.06503 -2.94257,13.06503 0,0 -1.65669,9.31431 -2.23636,14.00667 -0.27523,2.22801 -0.635,4.4646 -0.58852,6.70906 0.0442,2.13593 0.34659,4.27359 0.82392,6.35597 0.49897,2.1768 1.58033,4.18856 2.11866,6.35596 0.34517,1.38969 0.70622,4.23731 0.70622,4.23731 l 3.64879,6.00285 -2.00095,-13.77126 c 0,0 3.17894,1.13319 4.2373,2.35407 1.513,1.74533 2.47178,6.47366 2.47178,6.47366 0,0 1.17255,-8.41549 0.7062,-12.59422 -0.3168,-2.83868 -2.2289,-5.38565 -2.35406,-8.23922 -0.0998,-2.27542 -0.97612,-6.53384 1.29474,-6.70905 1.62093,-0.12506 1.64785,4.59041 1.64785,4.59041 0,0 -0.83963,-4.87011 -0.58853,-7.29758 0.39982,-3.86516 2.4003,-7.40057 3.29569,-11.18178 1.12075,-4.73291 -2.2054,-13.54377 2.58946,-14.35978 2.6674,-0.45395 3.42459,4.41875 4.00191,7.06219 0.58815,2.69299 -0.70623,8.2392 -0.70623,8.2392 0,0 2.32008,-6.52257 2.11867,-9.88704 -0.16608,-2.77431 -1.92986,-5.21774 -2.70717,-7.8861 -0.60947,-2.09222 -1.46036,-4.1779 -1.53014,-6.35597 -0.088,-2.74639 0.89991,-5.42192 1.41243,-8.12151 0.76208,-4.01413 1.61295,-8.01114 2.47176,-12.00569 0.49018,-2.27996 1.30842,-4.50529 1.53015,-6.82679 0.15925,-1.66738 -0.15099,-5.02265 -0.15099,-5.02265 0,0 3.44281,4.27144 4.74141,6.67051 1.1237,2.07597 2.16753,4.26879 2.58945,6.59136 0.4699,2.58666 -0.11771,7.8861 -0.11771,7.8861 0,0 0.91463,-3.66511 1.17705,-5.53204 0.23539,-1.67472 0.25268,-3.06468 0.3531,-5.06124 0.7353,2.2347 1.45192,3.91838 2.58946,5.64976 2.31871,3.52919 5.99567,5.99769 8.47462,9.41623 3.00254,4.14056 6.04021,8.44598 7.65069,13.30044 0.62616,1.8874 0.92144,3.94684 0.70622,5.92371 -0.22076,2.02771 -1.57721,3.78564 -2.01494,5.7778 -0.37388,1.70156 -0.50631,5.20186 -0.50631,5.20186 0,0 1.2101,-4.77129 2.67623,-6.66321 0.8908,-1.1495 3.51452,-2.58499 3.51452,-2.58499 0,0 0.12963,3.31401 -0.1384,4.93905 -0.51393,3.11582 -2.78995,9.05361 -2.78995,9.05361 0,0 3.59647,-5.37527 4.97151,-8.28894 0.773,-1.63799 1.82034,-5.11968 1.82034,-5.11968 0,0 3.4223,3.01572 4.94352,4.70812 2.84326,3.16325 5.65421,6.43187 7.7684,10.12245 2.02085,3.5276 4.32048,7.24303 4.59041,11.29949 0.0816,1.22554 1.26595,2.85779 0.83394,4.43776 -0.75381,2.75685 -3.36555,5.35452 -3.36555,5.35452 0,0 3.1581,-0.87363 4.36239,-1.90725 0.90796,-0.77928 1.74486,-1.84924 1.92006,-3.03285 0.34116,-2.30475 -1.86759,-6.73543 -1.86759,-6.73543 0,0 2.96719,3.90867 4.2373,6.00286 1.51053,2.4906 3.10028,4.99858 4.0019,7.76839 0.87254,2.68044 1.72984,5.57183 1.29474,8.35691 -0.21665,1.38687 -1.88325,3.7665 -1.88325,3.7665 0,0 3.69435,-3.67069 4.70812,-6.00285 1.01317,-2.33078 1.00613,-4.99728 1.17703,-7.53299 0.1293,-1.91853 0.49556,-3.94498 -0.11771,-5.76745 -0.51059,-1.51732 -1.89335,-2.58217 -2.82485,-3.8842 -3.01474,-4.21394 -5.92672,-8.50083 -8.94544,-12.71192 -3.56623,-4.97488 -6.8107,-10.21286 -10.82867,-14.83057 -3.40588,-3.91425 -8.46239,-12.27787 -11.18179,-10.82868 -3.90135,-5.20938 -4.73361,-12.44398 -9.08829,-17.28081 -2.09621,-2.32831 -6.1081,-7.31813 -7.81507,-5.22116 -4.4848,-7.79041 -10.89285,-15.12754 -16.64199,-22.46057 -2.38965,-3.04801 -7.41529,-8.94542 -7.41529,-8.94542 0,0 1.21265,2.92277 1.29474,4.47271 0.0948,1.79072 -0.2732,3.63264 -0.94163,5.29663 -0.47456,1.18141 -1.43783,2.10216 -2.11865,3.17798 -1.22336,1.93316 -2.60187,3.79463 -3.53109,5.88515 -0.98302,2.21152 -1.56161,4.5893 -2.11865,6.94448 -0.91601,3.87287 -1.66628,7.80467 -2.00095,11.77029 3.59179,-3.54277 0.44551,7.55944 0,11.29949 -0.57292,4.80965 -2.31234,9.40751 -3.41339,14.12435 z"
           style="fill:#000000;fill-rule:evenodd;stroke:url(#linearGradient8424);stroke-width:9.60000038;stroke-linecap:round;stroke-linejoin:round;stroke-miterlimit:4;stroke-dasharray:none;stroke-opacity:1" /><path
           sodipodi:nodetypes="ccccaaacaacacaaccaaasscascaacacasacasaaaaaaaaaacacac"
           inkscape:connector-curvature="0"
           id="path8401"
           d="m 328.27302,445.85341 c 0,0 1.75357,2.78863 1.76555,4.35501 0.16975,3.58956 -3.48477,5.9626 -4.16546,8.71003 -0.61823,2.82743 1.10435,8.61218 1.10435,8.61218 0,0 0.0277,-5.12322 1.19491,-7.29229 1.21131,-2.25104 3.93022,-3.29726 5.6327,-5.20409 0.48604,-0.54439 0.64374,-1.43565 1.29472,-1.76554 0.66495,-0.33695 2.23636,0 2.23636,0 0,0 -1.74168,2.72615 -1.99564,4.27951 -0.45825,2.80282 0.45847,5.67007 0.95419,8.46651 0.38788,2.18797 1.576,6.4773 1.576,6.4773 0,0 -1.89193,-11.56636 2.19862,-13.78217 0.76335,-0.4135 2.37838,1.06131 2.37838,1.06131 0,0 4.42905,8.053 6.07024,12.33001 2.58523,6.73725 4.66523,13.72105 5.88515,20.83343 1.03021,6.00625 1.17703,18.24396 1.17703,18.24396 4.9045,-7.99229 5.11303,6.58213 7.53298,12.12341 1.11515,-4.37816 3.94083,5.48581 5.17894,8.59231 1.21947,3.05976 1.71523,6.38263 2.11866,9.65165 0.52986,4.29348 1.04938,8.69812 0.38274,12.9725 -0.44961,2.88285 -0.9863,6.06162 -2.91016,8.25519 -0.9679,1.10359 -2.61726,3.39486 -4.29391,4.07203 -1.43633,0.58013 -7.42639,2.36495 -7.42639,2.36495 0,0 7.66837,-0.13337 10.85998,-1.96255 2.34662,-1.34489 4.56664,-4.45276 5.28128,-6.16008 0.9091,-2.17186 1.51984,-7.02249 1.51984,-7.02249 0,0 3.41915,7.5099 6.00285,10.66794 2.51971,3.0798 7.34126,4.19951 9.03797,7.79885 1.24542,2.64201 0.19401,8.76036 0.19401,8.76036 0,0 2.36903,-3.8389 2.93662,-5.98847 0.60016,-2.27293 0.42562,-7.03965 0.42562,-7.03965 0,0 5.85125,0.72071 8.71003,1.41243 2.06377,0.49935 4.35751,0.69674 6.05847,1.96767 1.24147,0.92762 4.48828,2.28015 5.18548,4.4481 0.7222,2.24569 -1.67873,6.8749 -1.67873,6.8749 0,0 4.79976,-5.86729 4.22062,-9.18728 -0.88675,-5.08324 -9.17358,-9.19419 -10.84327,-11.04786 -1.00506,-1.11579 -2.40589,-1.83625 -3.76649,-2.47176 -3.93603,-1.83846 -9.15435,-0.96733 -12.47652,-3.76651 -3.75707,-3.16562 -4.81359,-8.60275 -6.59137,-13.18273 -4.10312,-10.57058 -6.12474,-21.83567 -9.29854,-32.72142 -2.22364,-7.62679 -4.65691,-15.1921 -6.82677,-22.83438 -1.89761,-6.68341 -3.71843,-13.3898 -5.41435,-20.12722 -0.7968,-3.16549 -3.08433,-6.38177 -2.23634,-9.53393 0.49029,-1.82254 2.24208,-3.18931 3.8842,-4.11961 1.43293,-0.8118 3.19673,-1.30088 4.82582,-1.05932 2.22405,0.32977 3.98663,2.09115 5.88514,3.29566 0.85496,0.54244 2.47177,1.76556 2.47177,1.76556 0,0 -2.88606,-6.40267 -4.47271,-9.53394 -0.44441,-0.87705 -1.41244,-2.58947 -1.41244,-2.58947 0,0 -14.11741,0.95797 -21.18653,0.94162 -6.40288,-0.0148 -19.1856,-0.94162 -19.1856,-0.94162 z"
           style="fill:#000000;fill-rule:evenodd;stroke:url(#linearGradient8426);stroke-width:9.60000038;stroke-linecap:round;stroke-linejoin:round;stroke-miterlimit:4;stroke-dasharray:none;stroke-opacity:1" /><path
           sodipodi:nodetypes="cscccsscacsacccac"
           inkscape:connector-curvature="0"
           id="path8403"
           d="m 263.51679,569.79252 c 0,0 -1.10321,-1.65651 0.0886,-3.71209 0.53056,-0.91508 5.20625,-3.32882 3.64455,-3.58272 1.8021,-0.937 3.97045,-1.6768 5.22181,-3.31544 1.02721,-1.34512 1.58488,-4.29497 1.58488,-4.29497 0,0 0.6611,2.68441 1.35044,4.3385 0.26167,0.62787 1.09855,1.46415 1.40059,2.31823 0.66814,1.88927 1.76919,4.36378 1.76919,4.36378 0,0 -1.64425,-2.11882 -2.72689,-2.87578 -0.36409,-0.25457 -1.22318,-0.52929 -1.22318,-0.52929 0,0 -5.28085,0.67632 -6.11846,2.74945 -0.1825,0.45169 -0.31375,1.36732 -0.0128,1.93953 0.31443,0.59786 1.67728,1.1373 1.67728,1.1373 0,0 -1.2324,0.12651 -1.80649,-0.0562 -0.9606,-0.38895 -1.4181,-0.79237 -1.74511,-1.73386 0,0 -1.43156,-0.0125 -1.93887,0.4107 -0.78646,0.65603 -1.16554,2.84282 -1.16554,2.84282 z"
           style="fill:#000000;fill-rule:evenodd;stroke:url(#linearGradient8428);stroke-width:9.60000038;stroke-linecap:round;stroke-linejoin:round;stroke-miterlimit:4;stroke-dasharray:none;stroke-opacity:1" /></g><g
         style="stroke:none"
         id="g8374"><path
           style="fill:#000000;fill-rule:evenodd;stroke:none;stroke-width:0.80330843px;stroke-linecap:butt;stroke-linejoin:miter;stroke-opacity:1"
           d="m 222.10493,457.64888 c 0,-1.64785 0.49924,-4.60663 0,-6.82678 -0.36193,-1.60952 -2.11866,-4.47271 -2.11866,-4.47271 0,0 12.07616,0.90242 18.12627,0.94163 6.04654,0.0391 18.12626,-0.70622 18.12626,-0.70622 0,0 1.24697,4.3967 1.88323,6.59137 0.77434,2.67095 2.35408,8.0038 2.35408,8.0038 0,0 -3.24334,-5.95552 -6.12056,-7.29759 -0.99557,-0.46439 -2.23819,-0.29755 -3.29567,0 -1.59343,0.44833 -3.1692,1.32488 -4.23731,2.58946 -0.81801,0.96847 -1.38466,2.2637 -1.41245,3.5311 -0.0729,3.32464 1.86674,6.41347 3.29569,9.41623 1.02937,2.16311 2.29493,4.23029 3.76649,6.12057 2.42023,3.10888 8.23922,8.47461 8.23922,8.47461 0,0 -6.2305,-3.0575 -8.94544,-5.17893 -2.66734,-2.08425 -4.80005,-4.77934 -7.06218,-7.29759 -1.22866,-1.36776 -3.53109,-4.23731 -3.53109,-4.23731 l -0.70621,9.41624 c 0,0 -1.05892,-9.74239 -3.06029,-14.12435 -1.30398,-2.85506 -2.99433,-5.8595 -5.64974,-7.533 -1.69249,-1.06664 -3.97042,-1.75676 -5.88515,-1.17703 -1.69936,0.51453 -3.76649,3.7665 -3.76649,3.7665 z"
           id="path8205"
           inkscape:connector-curvature="0"
           sodipodi:nodetypes="cacacacaaaaaacaaccaaac" /><path
           style="fill:#000000;fill-rule:evenodd;stroke:none;stroke-width:0.72274423px;stroke-linecap:butt;stroke-linejoin:miter;stroke-opacity:1"
           d="m 242.95855,473.30684 c 0,0 2.22934,6.33194 2.57764,9.63982 0.28968,2.75111 -0.59612,5.52682 -0.42696,8.28795 0.2574,4.20096 2.09123,8.22834 2.18414,12.43614 0.0401,1.81962 -0.70621,5.41434 -0.70621,5.41434 0,0 2.23895,-5.34756 3.06026,-8.12151 0.36486,-1.23231 0.82392,-3.76649 0.82392,-3.76649 0,0 1.24572,2.84587 2.11866,4.1196 0.53418,0.77941 1.40098,1.30611 1.88325,2.11865 0.82976,1.39804 1.44541,2.97734 1.64785,4.59042 0.20612,1.64241 -0.47081,4.94352 -0.47081,4.94352 0,0 1.62305,-2.16232 2.58946,-1.76554 1.70119,0.69846 0.51979,3.65627 1.05932,5.41433 1.25379,-1.16361 1.78682,3.60997 2.35407,5.53204 0.84532,2.86433 0.55658,6.00442 1.53013,8.82772 1.26095,-1.18715 2.06894,3.07606 2.58948,4.82584 1.04424,3.51023 0.78454,7.28746 0.94161,10.94636 0.0623,1.45034 0.0962,2.90653 0,4.35502 -0.11796,1.77726 0.003,3.66297 -0.70621,5.29663 -0.78867,1.81538 -2.88271,2.8194 -3.76651,4.59042 -0.66708,1.3368 -1.05932,4.355 -1.05932,4.355 0,0 2.154,-3.13491 4.96165,-5.55343 1.436,-1.23699 3.719,-1.54908 4.5723,-2.68577 1.2437,-1.65676 2.58947,-5.64975 2.58947,-5.64975 l 3.17797,3.5311 c 0,0 -1.34946,-3.8958 -1.88324,-5.88515 -0.81171,-3.02511 -1.23471,-6.14388 -2.00096,-9.18084 -0.93872,-3.72054 -2.05514,-7.39488 -3.17797,-11.06408 -0.96576,-3.15589 -2.08452,-6.26342 -3.06029,-9.41623 -1.2333,-3.98492 -2.1754,-8.06073 -3.53108,-12.00571 -1.56275,-4.54753 -3.47847,-8.96656 -5.29664,-13.41814 -1.03321,-2.52971 -2.3967,-8.47344 3.16294,-5.11161 -1.37469,-3.02529 -6.43042,-5.75822 -8.05526,-6.47449 -4.09084,-1.80336 -9.68266,-9.12616 -9.68266,-9.12616 z"
           id="path8207"
           inkscape:connector-curvature="0"
           sodipodi:nodetypes="caaacacaaacacacaaaaacssccaaaaascsc" /><path
           style="fill:#000000;fill-rule:evenodd;stroke:none;stroke-width:0.80330843px;stroke-linecap:butt;stroke-linejoin:miter;stroke-opacity:1"
           d="m 280.72102,508.49656 c -1.01478,4.34723 -2.94257,13.06503 -2.94257,13.06503 0,0 -1.65669,9.31431 -2.23636,14.00667 -0.27523,2.22801 -0.635,4.4646 -0.58852,6.70906 0.0442,2.13593 0.34659,4.27359 0.82392,6.35597 0.49897,2.1768 1.58033,4.18856 2.11866,6.35596 0.34517,1.38969 0.70622,4.23731 0.70622,4.23731 l 3.64879,6.00285 -2.00095,-13.77126 c 0,0 3.17894,1.13319 4.2373,2.35407 1.513,1.74533 2.47178,6.47366 2.47178,6.47366 0,0 1.17255,-8.41549 0.7062,-12.59422 -0.3168,-2.83868 -2.2289,-5.38565 -2.35406,-8.23922 -0.0998,-2.27542 -0.97612,-6.53384 1.29474,-6.70905 1.62093,-0.12506 1.64785,4.59041 1.64785,4.59041 0,0 -0.83963,-4.87011 -0.58853,-7.29758 0.39982,-3.86516 2.4003,-7.40057 3.29569,-11.18178 1.12075,-4.73291 -2.2054,-13.54377 2.58946,-14.35978 2.6674,-0.45395 3.42459,4.41875 4.00191,7.06219 0.58815,2.69299 -0.70623,8.2392 -0.70623,8.2392 0,0 2.32008,-6.52257 2.11867,-9.88704 -0.16608,-2.77431 -1.92986,-5.21774 -2.70717,-7.8861 -0.60947,-2.09222 -1.46036,-4.1779 -1.53014,-6.35597 -0.088,-2.74639 0.89991,-5.42192 1.41243,-8.12151 0.76208,-4.01413 1.61295,-8.01114 2.47176,-12.00569 0.49018,-2.27996 1.30842,-4.50529 1.53015,-6.82679 0.15925,-1.66738 -0.15099,-5.02265 -0.15099,-5.02265 0,0 3.44281,4.27144 4.74141,6.67051 1.1237,2.07597 2.16753,4.26879 2.58945,6.59136 0.4699,2.58666 -0.11771,7.8861 -0.11771,7.8861 0,0 0.91463,-3.66511 1.17705,-5.53204 0.23539,-1.67472 0.25268,-3.06468 0.3531,-5.06124 0.7353,2.2347 1.45192,3.91838 2.58946,5.64976 2.31871,3.52919 5.99567,5.99769 8.47462,9.41623 3.00254,4.14056 6.04021,8.44598 7.65069,13.30044 0.62616,1.8874 0.92144,3.94684 0.70622,5.92371 -0.22076,2.02771 -1.57721,3.78564 -2.01494,5.7778 -0.37388,1.70156 -0.50631,5.20186 -0.50631,5.20186 0,0 1.2101,-4.77129 2.67623,-6.66321 0.8908,-1.1495 3.51452,-2.58499 3.51452,-2.58499 0,0 0.12963,3.31401 -0.1384,4.93905 -0.51393,3.11582 -2.78995,9.05361 -2.78995,9.05361 0,0 3.59647,-5.37527 4.97151,-8.28894 0.773,-1.63799 1.82034,-5.11968 1.82034,-5.11968 0,0 3.4223,3.01572 4.94352,4.70812 2.84326,3.16325 5.65421,6.43187 7.7684,10.12245 2.02085,3.5276 4.32048,7.24303 4.59041,11.29949 0.0816,1.22554 1.26595,2.85779 0.83394,4.43776 -0.75381,2.75685 -3.36555,5.35452 -3.36555,5.35452 0,0 3.1581,-0.87363 4.36239,-1.90725 0.90796,-0.77928 1.74486,-1.84924 1.92006,-3.03285 0.34116,-2.30475 -1.86759,-6.73543 -1.86759,-6.73543 0,0 2.96719,3.90867 4.2373,6.00286 1.51053,2.4906 3.10028,4.99858 4.0019,7.76839 0.87254,2.68044 1.72984,5.57183 1.29474,8.35691 -0.21665,1.38687 -1.88325,3.7665 -1.88325,3.7665 0,0 3.69435,-3.67069 4.70812,-6.00285 1.01317,-2.33078 1.00613,-4.99728 1.17703,-7.53299 0.1293,-1.91853 0.49556,-3.94498 -0.11771,-5.76745 -0.51059,-1.51732 -1.89335,-2.58217 -2.82485,-3.8842 -3.01474,-4.21394 -5.92672,-8.50083 -8.94544,-12.71192 -3.56623,-4.97488 -6.8107,-10.21286 -10.82867,-14.83057 -3.40588,-3.91425 -8.46239,-12.27787 -11.18179,-10.82868 -3.90135,-5.20938 -4.73361,-12.44398 -9.08829,-17.28081 -2.09621,-2.32831 -6.1081,-7.31813 -7.81507,-5.22116 -4.4848,-7.79041 -10.89285,-15.12754 -16.64199,-22.46057 -2.38965,-3.04801 -7.41529,-8.94542 -7.41529,-8.94542 0,0 1.21265,2.92277 1.29474,4.47271 0.0948,1.79072 -0.2732,3.63264 -0.94163,5.29663 -0.47456,1.18141 -1.43783,2.10216 -2.11865,3.17798 -1.22336,1.93316 -2.60187,3.79463 -3.53109,5.88515 -0.98302,2.21152 -1.56161,4.5893 -2.11865,6.94448 -0.91601,3.87287 -1.66628,7.80467 -2.00095,11.77029 3.59179,-3.54277 0.44551,7.55944 0,11.29949 -0.57292,4.80965 -2.31234,9.40751 -3.41339,14.12435 z"
           id="path8209"
           inkscape:connector-curvature="0"
           sodipodi:nodetypes="acaaaacccacaaacaaaacaaaaaacaacacaaaaacacacacaasscaacaaacaaaaaacacacaaaaacaa" /><path
           style="fill:#000000;fill-rule:evenodd;stroke:none;stroke-width:0.72274423px;stroke-linecap:butt;stroke-linejoin:miter;stroke-opacity:1"
           d="m 328.27302,445.85341 c 0,0 1.75357,2.78863 1.76555,4.35501 0.16975,3.58956 -3.48477,5.9626 -4.16546,8.71003 -0.61823,2.82743 1.10435,8.61218 1.10435,8.61218 0,0 0.0277,-5.12322 1.19491,-7.29229 1.21131,-2.25104 3.93022,-3.29726 5.6327,-5.20409 0.48604,-0.54439 0.64374,-1.43565 1.29472,-1.76554 0.66495,-0.33695 2.23636,0 2.23636,0 0,0 -1.74168,2.72615 -1.99564,4.27951 -0.45825,2.80282 0.45847,5.67007 0.95419,8.46651 0.38788,2.18797 1.576,6.4773 1.576,6.4773 0,0 -1.89193,-11.56636 2.19862,-13.78217 0.76335,-0.4135 2.37838,1.06131 2.37838,1.06131 0,0 4.42905,8.053 6.07024,12.33001 2.58523,6.73725 4.66523,13.72105 5.88515,20.83343 1.03021,6.00625 1.17703,18.24396 1.17703,18.24396 4.9045,-7.99229 5.11303,6.58213 7.53298,12.12341 1.11515,-4.37816 3.94083,5.48581 5.17894,8.59231 1.21947,3.05976 1.71523,6.38263 2.11866,9.65165 0.52986,4.29348 1.04938,8.69812 0.38274,12.9725 -0.44961,2.88285 -0.9863,6.06162 -2.91016,8.25519 -0.9679,1.10359 -2.61726,3.39486 -4.29391,4.07203 -1.43633,0.58013 -7.42639,2.36495 -7.42639,2.36495 0,0 7.66837,-0.13337 10.85998,-1.96255 2.34662,-1.34489 4.56664,-4.45276 5.28128,-6.16008 0.9091,-2.17186 1.51984,-7.02249 1.51984,-7.02249 0,0 3.41915,7.5099 6.00285,10.66794 2.51971,3.0798 7.34126,4.19951 9.03797,7.79885 1.24542,2.64201 0.19401,8.76036 0.19401,8.76036 0,0 2.36903,-3.8389 2.93662,-5.98847 0.60016,-2.27293 0.42562,-7.03965 0.42562,-7.03965 0,0 5.85125,0.72071 8.71003,1.41243 2.06377,0.49935 4.35751,0.69674 6.05847,1.96767 1.24147,0.92762 4.48828,2.28015 5.18548,4.4481 0.7222,2.24569 -1.67873,6.8749 -1.67873,6.8749 0,0 4.79976,-5.86729 4.22062,-9.18728 -0.88675,-5.08324 -9.17358,-9.19419 -10.84327,-11.04786 -1.00506,-1.11579 -2.40589,-1.83625 -3.76649,-2.47176 -3.93603,-1.83846 -9.15435,-0.96733 -12.47652,-3.76651 -3.75707,-3.16562 -4.81359,-8.60275 -6.59137,-13.18273 -4.10312,-10.57058 -6.12474,-21.83567 -9.29854,-32.72142 -2.22364,-7.62679 -4.65691,-15.1921 -6.82677,-22.83438 -1.89761,-6.68341 -3.71843,-13.3898 -5.41435,-20.12722 -0.7968,-3.16549 -3.08433,-6.38177 -2.23634,-9.53393 0.49029,-1.82254 2.24208,-3.18931 3.8842,-4.11961 1.43293,-0.8118 3.19673,-1.30088 4.82582,-1.05932 2.22405,0.32977 3.98663,2.09115 5.88514,3.29566 0.85496,0.54244 2.47177,1.76556 2.47177,1.76556 0,0 -2.88606,-6.40267 -4.47271,-9.53394 -0.44441,-0.87705 -1.41244,-2.58947 -1.41244,-2.58947 0,0 -14.11741,0.95797 -21.18653,0.94162 -6.40288,-0.0148 -19.1856,-0.94162 -19.1856,-0.94162 z"
           id="path8211"
           inkscape:connector-curvature="0"
           sodipodi:nodetypes="ccccaaacaacacaaccaaasscascaacacasacasaaaaaaaaaacacac" /><path
           style="fill:#000000;fill-rule:evenodd;stroke:none;stroke-width:0.80000001px;stroke-linecap:butt;stroke-linejoin:miter;stroke-opacity:1"
           d="m 263.51679,569.79252 c 0,0 -1.10321,-1.65651 0.0886,-3.71209 0.53056,-0.91508 5.20625,-3.32882 3.64455,-3.58272 1.8021,-0.937 3.97045,-1.6768 5.22181,-3.31544 1.02721,-1.34512 1.58488,-4.29497 1.58488,-4.29497 0,0 0.6611,2.68441 1.35044,4.3385 0.26167,0.62787 1.09855,1.46415 1.40059,2.31823 0.66814,1.88927 1.76919,4.36378 1.76919,4.36378 0,0 -1.64425,-2.11882 -2.72689,-2.87578 -0.36409,-0.25457 -1.22318,-0.52929 -1.22318,-0.52929 0,0 -5.28085,0.67632 -6.11846,2.74945 -0.1825,0.45169 -0.31375,1.36732 -0.0128,1.93953 0.31443,0.59786 1.67728,1.1373 1.67728,1.1373 0,0 -1.2324,0.12651 -1.80649,-0.0562 -0.9606,-0.38895 -1.4181,-0.79237 -1.74511,-1.73386 0,0 -1.43156,-0.0125 -1.93887,0.4107 -0.78646,0.65603 -1.16554,2.84282 -1.16554,2.84282 z"
           id="path8354"
           inkscape:connector-curvature="0"
           sodipodi:nodetypes="cscccsscacsacccac" /></g></g></g></svg>