<?xml version="1.0" encoding="UTF-8" standalone="no"?>
<!-- Created with Inkscape (http://www.inkscape.org/) -->

<svg
   xmlns:dc="http://purl.org/dc/elements/1.1/"
   xmlns:cc="http://creativecommons.org/ns#"
   xmlns:rdf="http://www.w3.org/1999/02/22-rdf-syntax-ns#"
   xmlns:svg="http://www.w3.org/2000/svg"
   xmlns="http://www.w3.org/2000/svg"
   xmlns:xlink="http://www.w3.org/1999/xlink"
   xmlns:sodipodi="http://sodipodi.sourceforge.net/DTD/sodipodi-0.dtd"
   xmlns:inkscape="http://www.inkscape.org/namespaces/inkscape"
   id="svg2"
   version="1.1"
   inkscape:version="0.91 r13725"
   xml:space="preserve"
   width="150.85431mm"
   height="150.85431mm"
   viewBox="0 0 534.52316 534.52315"
   sodipodi:docname="burnglobe.svg"><metadata
     id="metadata8"><rdf:RDF><cc:Work
         rdf:about=""><dc:format>image/svg+xml</dc:format><dc:type
           rdf:resource="http://purl.org/dc/dcmitype/StillImage" /><dc:title></dc:title></cc:Work></rdf:RDF></metadata><defs
     id="defs6"><linearGradient
       id="linearGradient8414"
       inkscape:collect="always"><stop
         id="stop8416"
         offset="0"
         style="stop-color:#ffcc00;stop-opacity:1;" /><stop
         id="stop8418"
         offset="1"
         style="stop-color:#ff4300;stop-opacity:1" /></linearGradient><linearGradient
       inkscape:collect="always"
       id="linearGradient8815"><stop
         style="stop-color:#ffcc00;stop-opacity:1;"
         offset="0"
         id="stop8817" /><stop
         style="stop-color:#ff4300;stop-opacity:1"
         offset="1"
         id="stop8819" /></linearGradient><linearGradient
       inkscape:collect="always"
       xlink:href="#linearGradient8815"
       id="linearGradient8403"
       x1="505.46634"
       y1="-540.1059"
       x2="505.17816"
       y2="-560.92682"
       gradientUnits="userSpaceOnUse" /><clipPath
       clipPathUnits="userSpaceOnUse"
       id="clipPath8222"><path
         sodipodi:nodetypes="csssasscccccccc"
         inkscape:connector-curvature="0"
         id="path8224"
         d="m 84.594123,538.45151 c 0,0 -18.272107,-5.27815 -19.079446,-6.0136 -1.22945,-1.11998 -5.801086,-2.75056 -6.287494,-3.20596 -0.945625,-0.88533 -3.925689,-3.55078 -4.659988,-4.33493 -1.683425,-1.79772 -2.803478,-2.99038 -4.135998,-4.54667 -2.149409,-2.51036 -4.646051,-5.24813 -6.219101,-7.72136 -2.3651,-3.71853 -5.920043,-10.36352 -8.123278,-14.05976 -0.868507,-1.45704 -2.321146,-3.77266 -3.47558,-5.69912 -3.765485,-5.40128 -7.093369,-2.61071 -6.886357,3.61088 l 8.249527,51.55388 -124.318294,-45.9304 47.767621,-102.88411 276.807235,22.3528 0.3062,120.64386 z"
         style="fill:#000000;fill-opacity:0.55721388;fill-rule:evenodd;stroke:none;stroke-width:4;stroke-linecap:butt;stroke-linejoin:miter;stroke-miterlimit:4;stroke-dasharray:none;stroke-opacity:1" /></clipPath><clipPath
       clipPathUnits="userSpaceOnUse"
       id="clipPath8222-3"><path
         sodipodi:nodetypes="csssasscccccccc"
         inkscape:connector-curvature="0"
         id="path8224-6"
         d="m 84.594123,538.45151 c 0,0 -18.272107,-5.27815 -19.079446,-6.0136 -1.22945,-1.11998 -5.801086,-2.75056 -6.287494,-3.20596 -0.945625,-0.88533 -3.925689,-3.55078 -4.659988,-4.33493 -1.683425,-1.79772 -2.803478,-2.99038 -4.135998,-4.54667 -2.149409,-2.51036 -4.646051,-5.24813 -6.219101,-7.72136 -2.3651,-3.71853 -5.920043,-10.36352 -8.123278,-14.05976 -0.868507,-1.45704 -2.321146,-3.77266 -3.47558,-5.69912 -3.765485,-5.40128 -7.093369,-2.61071 -6.886357,3.61088 l 8.249527,51.55388 -124.318294,-45.9304 47.767621,-102.88411 276.807235,22.3528 0.3062,120.64386 z"
         style="fill:#000000;fill-opacity:0.55721388;fill-rule:evenodd;stroke:none;stroke-width:4;stroke-linecap:butt;stroke-linejoin:miter;stroke-miterlimit:4;stroke-dasharray:none;stroke-opacity:1" /></clipPath><linearGradient
       inkscape:collect="always"
       xlink:href="#linearGradient8414"
       id="linearGradient8193"
       x1="226.52614"
       y1="-462.74866"
       x2="227.15842"
       y2="-504.37805"
       gradientUnits="userSpaceOnUse"
       gradientTransform="translate(75.2,-1.9899926)" /><linearGradient
       inkscape:collect="always"
       xlink:href="#linearGradient8414"
       id="linearGradient8201"
       x1="226.52614"
       y1="-462.74866"
       x2="227.15842"
       y2="-504.37805"
       gradientUnits="userSpaceOnUse"
       gradientTransform="translate(75.2,-1.9899926)" /><clipPath
       clipPathUnits="userSpaceOnUse"
       id="clipPath13850"><path
         style="fill:#000000;fill-opacity:0.55721388;fill-rule:evenodd;stroke:none;stroke-width:4;stroke-linecap:butt;stroke-linejoin:miter;stroke-miterlimit:4;stroke-dasharray:none;stroke-opacity:1"
         d="m 84.594123,538.45151 c 0,0 -18.272107,-5.27815 -19.079446,-6.0136 -1.22945,-1.11998 -4.535255,-2.91285 -5.021663,-3.36825 -5.703562,-5.2437 -7.015357,-6.39387 -10.202545,-9.90097 -3.135852,-3.45062 -7.166815,-8.44819 -8.739865,-10.92142 -2.3651,-3.71853 -3.258551,-5.9818 -5.461786,-9.67804 -0.868507,-1.45704 -2.321146,-3.77266 -3.47558,-5.69912 -3.765485,-5.40128 -7.093369,-2.61071 -6.886357,3.61088 l 8.249527,51.55388 -124.318294,-45.9304 47.767621,-102.88411 276.807235,22.3528 0.3062,120.64386 z"
         id="path13852"
         inkscape:connector-curvature="0"
         sodipodi:nodetypes="cscasscccccccc" /></clipPath><clipPath
       clipPathUnits="userSpaceOnUse"
       id="clipPath522"><path
         d="m 135,79.2 837,0 0,554.4 -837,0 0,-554.4 z"
         id="path524"
         inkscape:connector-curvature="0" /></clipPath><clipPath
       clipPathUnits="userSpaceOnUse"
       id="clipPath502"><path
         d="m 135,79.2 837,0 0,554.4 -837,0 0,-554.4 z"
         id="path504"
         inkscape:connector-curvature="0" /></clipPath><clipPath
       clipPathUnits="userSpaceOnUse"
       id="clipPath512"><path
         d="m 135,79.2 837,0 0,554.4 -837,0 0,-554.4 z"
         id="path514"
         inkscape:connector-curvature="0" /></clipPath><clipPath
       clipPathUnits="userSpaceOnUse"
       id="clipPath492"><path
         d="m 135,79.2 837,0 0,554.4 -837,0 0,-554.4 z"
         id="path494"
         inkscape:connector-curvature="0" /></clipPath><clipPath
       clipPathUnits="userSpaceOnUse"
       id="clipPath542"><path
         d="m 135,79.2 837,0 0,554.4 -837,0 0,-554.4 z"
         id="path544"
         inkscape:connector-curvature="0" /></clipPath><clipPath
       clipPathUnits="userSpaceOnUse"
       id="clipPath552"><path
         d="m 135,79.2 837,0 0,554.4 -837,0 0,-554.4 z"
         id="path554"
         inkscape:connector-curvature="0" /></clipPath><clipPath
       clipPathUnits="userSpaceOnUse"
       id="clipPath532"><path
         d="m 135,79.2 837,0 0,554.4 -837,0 0,-554.4 z"
         id="path534"
         inkscape:connector-curvature="0" /></clipPath><clipPath
       id="clipPath8278"
       clipPathUnits="userSpaceOnUse"><path
         inkscape:connector-curvature="0"
         id="path8280"
         d="m 135,79.2 837,0 0,554.4 -837,0 0,-554.4 z" /></clipPath><clipPath
       id="clipPath8290"
       clipPathUnits="userSpaceOnUse"><path
         inkscape:connector-curvature="0"
         id="path8292"
         d="m 135,79.2 837,0 0,554.4 -837,0 0,-554.4 z" /></clipPath><clipPath
       id="clipPath8308"
       clipPathUnits="userSpaceOnUse"><path
         inkscape:connector-curvature="0"
         id="path8310"
         d="m 135,79.2 837,0 0,554.4 -837,0 0,-554.4 z" /></clipPath><clipPath
       id="clipPath8326"
       clipPathUnits="userSpaceOnUse"><path
         inkscape:connector-curvature="0"
         id="path8328"
         d="m 135,79.2 837,0 0,554.4 -837,0 0,-554.4 z" /></clipPath><clipPath
       id="clipPath8344"
       clipPathUnits="userSpaceOnUse"><path
         inkscape:connector-curvature="0"
         id="path8346"
         d="m 135,79.2 837,0 0,554.4 -837,0 0,-554.4 z" /></clipPath><clipPath
       id="clipPath8362"
       clipPathUnits="userSpaceOnUse"><path
         inkscape:connector-curvature="0"
         id="path8364"
         d="m 135,79.2 837,0 0,554.4 -837,0 0,-554.4 z" /></clipPath><clipPath
       id="clipPath8380"
       clipPathUnits="userSpaceOnUse"><path
         inkscape:connector-curvature="0"
         id="path8382"
         d="m 135,79.2 837,0 0,554.4 -837,0 0,-554.4 z" /></clipPath><clipPath
       id="clipPath8402"
       clipPathUnits="userSpaceOnUse"><path
         inkscape:connector-curvature="0"
         id="path8404"
         d="m 135,79.2 837,0 0,554.4 -837,0 0,-554.4 z" /></clipPath><clipPath
       id="clipPath8420"
       clipPathUnits="userSpaceOnUse"><path
         inkscape:connector-curvature="0"
         id="path8422"
         d="m 135,79.2 837,0 0,554.4 -837,0 0,-554.4 z" /></clipPath><clipPath
       id="clipPath8438"
       clipPathUnits="userSpaceOnUse"><path
         inkscape:connector-curvature="0"
         id="path8440"
         d="m 135,79.2 837,0 0,554.4 -837,0 0,-554.4 z" /></clipPath><clipPath
       id="clipPath8456"
       clipPathUnits="userSpaceOnUse"><path
         inkscape:connector-curvature="0"
         id="path8458"
         d="m 135,79.2 837,0 0,554.4 -837,0 0,-554.4 z" /></clipPath><clipPath
       id="clipPath8474"
       clipPathUnits="userSpaceOnUse"><path
         inkscape:connector-curvature="0"
         id="path8476"
         d="m 135,79.2 837,0 0,554.4 -837,0 0,-554.4 z" /></clipPath><clipPath
       id="clipPath8492"
       clipPathUnits="userSpaceOnUse"><path
         inkscape:connector-curvature="0"
         id="path8494"
         d="m 135,79.2 837,0 0,554.4 -837,0 0,-554.4 z" /></clipPath><clipPath
       id="clipPath8510"
       clipPathUnits="userSpaceOnUse"><path
         inkscape:connector-curvature="0"
         id="path8512"
         d="m 135,79.2 837,0 0,554.4 -837,0 0,-554.4 z" /></clipPath><clipPath
       id="clipPath8528"
       clipPathUnits="userSpaceOnUse"><path
         inkscape:connector-curvature="0"
         id="path8530"
         d="m 135,79.2 837,0 0,554.4 -837,0 0,-554.4 z" /></clipPath><clipPath
       id="clipPath8550"
       clipPathUnits="userSpaceOnUse"><path
         inkscape:connector-curvature="0"
         id="path8552"
         d="m 135,79.2 837,0 0,554.4 -837,0 0,-554.4 z" /></clipPath><clipPath
       id="clipPath8570"
       clipPathUnits="userSpaceOnUse"><path
         inkscape:connector-curvature="0"
         id="path8572"
         d="m 135,79.2 837,0 0,554.4 -837,0 0,-554.4 z" /></clipPath><clipPath
       id="clipPath8590"
       clipPathUnits="userSpaceOnUse"><path
         inkscape:connector-curvature="0"
         id="path8592"
         d="m 135,79.2 837,0 0,554.4 -837,0 0,-554.4 z" /></clipPath><clipPath
       id="clipPath8610"
       clipPathUnits="userSpaceOnUse"><path
         inkscape:connector-curvature="0"
         id="path8612"
         d="m 135,79.2 837,0 0,554.4 -837,0 0,-554.4 z" /></clipPath><clipPath
       id="clipPath8630"
       clipPathUnits="userSpaceOnUse"><path
         inkscape:connector-curvature="0"
         id="path8632"
         d="m 135,79.2 837,0 0,554.4 -837,0 0,-554.4 z" /></clipPath><clipPath
       id="clipPath8642"
       clipPathUnits="userSpaceOnUse"><path
         inkscape:connector-curvature="0"
         id="path8644"
         d="m 135,79.2 837,0 0,554.4 -837,0 0,-554.4 z" /></clipPath><clipPath
       id="clipPath8654"
       clipPathUnits="userSpaceOnUse"><path
         inkscape:connector-curvature="0"
         id="path8656"
         d="m 135,79.2 837,0 0,554.4 -837,0 0,-554.4 z" /></clipPath><clipPath
       id="clipPath8666"
       clipPathUnits="userSpaceOnUse"><path
         inkscape:connector-curvature="0"
         id="path8668"
         d="m 135,79.2 837,0 0,554.4 -837,0 0,-554.4 z" /></clipPath><clipPath
       id="clipPath8678"
       clipPathUnits="userSpaceOnUse"><path
         inkscape:connector-curvature="0"
         id="path8680"
         d="m 135,79.2 837,0 0,554.4 -837,0 0,-554.4 z" /></clipPath><clipPath
       id="clipPath8696"
       clipPathUnits="userSpaceOnUse"><path
         inkscape:connector-curvature="0"
         id="path8698"
         d="m 135,79.2 837,0 0,554.4 -837,0 0,-554.4 z" /></clipPath><clipPath
       id="clipPath8714"
       clipPathUnits="userSpaceOnUse"><path
         inkscape:connector-curvature="0"
         id="path8716"
         d="m 135,79.2 837,0 0,554.4 -837,0 0,-554.4 z" /></clipPath><clipPath
       id="clipPath8732"
       clipPathUnits="userSpaceOnUse"><path
         inkscape:connector-curvature="0"
         id="path8734"
         d="m 135,79.2 837,0 0,554.4 -837,0 0,-554.4 z" /></clipPath><clipPath
       id="clipPath8750"
       clipPathUnits="userSpaceOnUse"><path
         inkscape:connector-curvature="0"
         id="path8752"
         d="m 135,79.2 837,0 0,554.4 -837,0 0,-554.4 z" /></clipPath><clipPath
       id="clipPath8760"
       clipPathUnits="userSpaceOnUse"><path
         inkscape:connector-curvature="0"
         id="path8762"
         d="m 135,79.2 837,0 0,554.4 -837,0 0,-554.4 z" /></clipPath><clipPath
       id="clipPath8770"
       clipPathUnits="userSpaceOnUse"><path
         inkscape:connector-curvature="0"
         id="path8772"
         d="m 135,79.2 837,0 0,554.4 -837,0 0,-554.4 z" /></clipPath><clipPath
       id="clipPath8780"
       clipPathUnits="userSpaceOnUse"><path
         inkscape:connector-curvature="0"
         id="path8782"
         d="m 135,79.2 837,0 0,554.4 -837,0 0,-554.4 z" /></clipPath><clipPath
       id="clipPath8790"
       clipPathUnits="userSpaceOnUse"><path
         inkscape:connector-curvature="0"
         id="path8792"
         d="m 135,79.2 837,0 0,554.4 -837,0 0,-554.4 z" /></clipPath><clipPath
       id="clipPath8800"
       clipPathUnits="userSpaceOnUse"><path
         inkscape:connector-curvature="0"
         id="path8802"
         d="m 135,79.2 837,0 0,554.4 -837,0 0,-554.4 z" /></clipPath><clipPath
       id="clipPath8810"
       clipPathUnits="userSpaceOnUse"><path
         inkscape:connector-curvature="0"
         id="path8812"
         d="m 135,79.2 837,0 0,554.4 -837,0 0,-554.4 z" /></clipPath><clipPath
       id="clipPath8820"
       clipPathUnits="userSpaceOnUse"><path
         inkscape:connector-curvature="0"
         id="path8822"
         d="m 135,79.2 837,0 0,554.4 -837,0 0,-554.4 z" /></clipPath><clipPath
       id="clipPath8830"
       clipPathUnits="userSpaceOnUse"><path
         inkscape:connector-curvature="0"
         id="path8832"
         d="m -3.5,-3.5 7,0 0,7 -7,0 0,-7 z" /></clipPath><clipPath
       id="clipPath8842"
       clipPathUnits="userSpaceOnUse"><path
         inkscape:connector-curvature="0"
         id="path8844"
         d="m -3.5,-3.5 7,0 0,7 -7,0 0,-7 z" /></clipPath><clipPath
       id="clipPath8854"
       clipPathUnits="userSpaceOnUse"><path
         inkscape:connector-curvature="0"
         id="path8856"
         d="m -3.5,-3.5 7,0 0,7 -7,0 0,-7 z" /></clipPath><clipPath
       id="clipPath8866"
       clipPathUnits="userSpaceOnUse"><path
         inkscape:connector-curvature="0"
         id="path8868"
         d="m -3.5,-3.5 7,0 0,7 -7,0 0,-7 z" /></clipPath><clipPath
       id="clipPath8878"
       clipPathUnits="userSpaceOnUse"><path
         inkscape:connector-curvature="0"
         id="path8880"
         d="m -3.5,-3.5 7,0 0,7 -7,0 0,-7 z" /></clipPath><clipPath
       id="clipPath8890"
       clipPathUnits="userSpaceOnUse"><path
         inkscape:connector-curvature="0"
         id="path8892"
         d="m -3.5,-3.5 7,0 0,7 -7,0 0,-7 z" /></clipPath><clipPath
       id="clipPath8900"
       clipPathUnits="userSpaceOnUse"><path
         inkscape:connector-curvature="0"
         id="path8902"
         d="m 135,79.2 837,0 0,554.4 -837,0 0,-554.4 z" /></clipPath><clipPath
       id="clipPath8910"
       clipPathUnits="userSpaceOnUse"><path
         inkscape:connector-curvature="0"
         id="path8912"
         d="m -3.5,-3.5 7,0 0,7 -7,0 0,-7 z" /></clipPath><clipPath
       id="clipPath8922"
       clipPathUnits="userSpaceOnUse"><path
         inkscape:connector-curvature="0"
         id="path8924"
         d="m -3.5,-3.5 7,0 0,7 -7,0 0,-7 z" /></clipPath><clipPath
       id="clipPath8934"
       clipPathUnits="userSpaceOnUse"><path
         inkscape:connector-curvature="0"
         id="path8936"
         d="m -3.5,-3.5 7,0 0,7 -7,0 0,-7 z" /></clipPath><clipPath
       id="clipPath8946"
       clipPathUnits="userSpaceOnUse"><path
         inkscape:connector-curvature="0"
         id="path8948"
         d="m -3.5,-3.5 7,0 0,7 -7,0 0,-7 z" /></clipPath><clipPath
       id="clipPath8958"
       clipPathUnits="userSpaceOnUse"><path
         inkscape:connector-curvature="0"
         id="path8960"
         d="m -3.5,-3.5 7,0 0,7 -7,0 0,-7 z" /></clipPath><clipPath
       id="clipPath8970"
       clipPathUnits="userSpaceOnUse"><path
         inkscape:connector-curvature="0"
         id="path8972"
         d="m -3.5,-3.5 7,0 0,7 -7,0 0,-7 z" /></clipPath><clipPath
       id="clipPath8980"
       clipPathUnits="userSpaceOnUse"><path
         inkscape:connector-curvature="0"
         id="path8982"
         d="m 135,79.2 837,0 0,554.4 -837,0 0,-554.4 z" /></clipPath><clipPath
       id="clipPath8990"
       clipPathUnits="userSpaceOnUse"><path
         inkscape:connector-curvature="0"
         id="path8992"
         d="m -3.5,-3.5 7,0 0,7 -7,0 0,-7 z" /></clipPath><clipPath
       id="clipPath9002"
       clipPathUnits="userSpaceOnUse"><path
         inkscape:connector-curvature="0"
         id="path9004"
         d="m -3.5,-3.5 7,0 0,7 -7,0 0,-7 z" /></clipPath><clipPath
       id="clipPath9012"
       clipPathUnits="userSpaceOnUse"><path
         inkscape:connector-curvature="0"
         id="path9014"
         d="m 135,79.2 837,0 0,554.4 -837,0 0,-554.4 z" /></clipPath><clipPath
       id="clipPath9022"
       clipPathUnits="userSpaceOnUse"><path
         inkscape:connector-curvature="0"
         id="path9024"
         d="m -3.5,-3.5 7,0 0,7 -7,0 0,-7 z" /></clipPath><clipPath
       id="clipPath9034"
       clipPathUnits="userSpaceOnUse"><path
         inkscape:connector-curvature="0"
         id="path9036"
         d="m -3.5,-3.5 7,0 0,7 -7,0 0,-7 z" /></clipPath><clipPath
       id="clipPath9044"
       clipPathUnits="userSpaceOnUse"><path
         inkscape:connector-curvature="0"
         id="path9046"
         d="m 135,79.2 837,0 0,554.4 -837,0 0,-554.4 z" /></clipPath><clipPath
       id="clipPath9054"
       clipPathUnits="userSpaceOnUse"><path
         inkscape:connector-curvature="0"
         id="path9056"
         d="m -3.5,-3.5 7,0 0,7 -7,0 0,-7 z" /></clipPath><clipPath
       id="clipPath9066"
       clipPathUnits="userSpaceOnUse"><path
         inkscape:connector-curvature="0"
         id="path9068"
         d="m -3.5,-3.5 7,0 0,7 -7,0 0,-7 z" /></clipPath><clipPath
       id="clipPath9078"
       clipPathUnits="userSpaceOnUse"><path
         inkscape:connector-curvature="0"
         id="path9080"
         d="m -3.5,-3.5 7,0 0,7 -7,0 0,-7 z" /></clipPath><clipPath
       id="clipPath9090"
       clipPathUnits="userSpaceOnUse"><path
         inkscape:connector-curvature="0"
         id="path9092"
         d="m -3.5,-3.5 7,0 0,7 -7,0 0,-7 z" /></clipPath><clipPath
       id="clipPath9102"
       clipPathUnits="userSpaceOnUse"><path
         inkscape:connector-curvature="0"
         id="path9104"
         d="m -3.5,-3.5 7,0 0,7 -7,0 0,-7 z" /></clipPath><clipPath
       id="clipPath9112"
       clipPathUnits="userSpaceOnUse"><path
         inkscape:connector-curvature="0"
         id="path9114"
         d="m 135,79.2 837,0 0,554.4 -837,0 0,-554.4 z" /></clipPath><clipPath
       id="clipPath9122"
       clipPathUnits="userSpaceOnUse"><path
         inkscape:connector-curvature="0"
         id="path9124"
         d="m -3.5,-3.5 7,0 0,7 -7,0 0,-7 z" /></clipPath><clipPath
       id="clipPath9134"
       clipPathUnits="userSpaceOnUse"><path
         inkscape:connector-curvature="0"
         id="path9136"
         d="m -3.5,-3.5 7,0 0,7 -7,0 0,-7 z" /></clipPath><clipPath
       id="clipPath9146"
       clipPathUnits="userSpaceOnUse"><path
         inkscape:connector-curvature="0"
         id="path9148"
         d="m -3.5,-3.5 7,0 0,7 -7,0 0,-7 z" /></clipPath><clipPath
       id="clipPath9158"
       clipPathUnits="userSpaceOnUse"><path
         inkscape:connector-curvature="0"
         id="path9160"
         d="m -3.5,-3.5 7,0 0,7 -7,0 0,-7 z" /></clipPath><clipPath
       id="clipPath9170"
       clipPathUnits="userSpaceOnUse"><path
         inkscape:connector-curvature="0"
         id="path9172"
         d="m -3.5,-3.5 7,0 0,7 -7,0 0,-7 z" /></clipPath><linearGradient
       inkscape:collect="always"
       xlink:href="#linearGradient8414"
       id="linearGradient15317"
       gradientUnits="userSpaceOnUse"
       gradientTransform="translate(75.2,-160.00015)"
       x1="226.52614"
       y1="-462.74866"
       x2="227.15842"
       y2="-504.37805" /><linearGradient
       inkscape:collect="always"
       xlink:href="#linearGradient8414"
       id="linearGradient15332"
       x1="505.46634"
       y1="-540.1059"
       x2="505.17816"
       y2="-560.92682"
       gradientUnits="userSpaceOnUse"
       gradientTransform="translate(-18.750782,26.239472)" /><clipPath
       clipPathUnits="userSpaceOnUse"
       id="clipPath13850-2"><path
         style="fill:#000000;fill-opacity:0.55721388;fill-rule:evenodd;stroke:none;stroke-width:4;stroke-linecap:butt;stroke-linejoin:miter;stroke-miterlimit:4;stroke-dasharray:none;stroke-opacity:1"
         d="m 84.594123,538.45151 c 0,0 -18.272107,-5.27815 -19.079446,-6.0136 -1.22945,-1.11998 -4.535255,-2.91285 -5.021663,-3.36825 -5.703562,-5.2437 -7.015357,-6.39387 -10.202545,-9.90097 -3.135852,-3.45062 -7.166815,-8.44819 -8.739865,-10.92142 -2.3651,-3.71853 -3.258551,-5.9818 -5.461786,-9.67804 -0.868507,-1.45704 -2.321146,-3.77266 -3.47558,-5.69912 -3.765485,-5.40128 -7.093369,-2.61071 -6.886357,3.61088 l 8.249527,51.55388 -124.318294,-45.9304 47.767621,-102.88411 276.807235,22.3528 0.3062,120.64386 z"
         id="path13852-7"
         inkscape:connector-curvature="0"
         sodipodi:nodetypes="cscasscccccccc" /></clipPath><linearGradient
       inkscape:collect="always"
       xlink:href="#linearGradient8414"
       id="linearGradient15349"
       x1="226.52614"
       y1="-462.74866"
       x2="227.15842"
       y2="-504.37805"
       gradientUnits="userSpaceOnUse"
       gradientTransform="translate(75.2,-1.9899926)" /><linearGradient
       inkscape:collect="always"
       xlink:href="#linearGradient8414"
       id="linearGradient15357"
       x1="226.52614"
       y1="-462.74866"
       x2="227.15842"
       y2="-504.37805"
       gradientUnits="userSpaceOnUse"
       gradientTransform="translate(75.2,-1.9899926)" /></defs><sodipodi:namedview
     pagecolor="#ffffff"
     bordercolor="#666666"
     borderopacity="1"
     objecttolerance="10"
     gridtolerance="10"
     guidetolerance="10"
     inkscape:pageopacity="0"
     inkscape:pageshadow="2"
     inkscape:window-width="3200"
     inkscape:window-height="1707"
     id="namedview4"
     showgrid="false"
     units="mm"
     inkscape:zoom="1.1794373"
     inkscape:cx="135.90856"
     inkscape:cy="225.61736"
     inkscape:window-x="0"
     inkscape:window-y="49"
     inkscape:window-maximized="1"
     inkscape:current-layer="g10"
     fit-margin-top="0"
     fit-margin-left="0"
     fit-margin-right="0"
     fit-margin-bottom="0" /><g
     id="g10"
     inkscape:groupmode="layer"
     inkscape:label="u"
     transform="matrix(1.25,0,0,-1.25,-180.06941,991.73879)"><g
       transform="scale(1,-1)"
       style="font-style:italic;font-variant:normal;font-weight:normal;font-stretch:normal;font-size:180px;line-height:125%;font-family:Junicode;-inkscape-font-specification:'Junicode Italic';letter-spacing:0px;word-spacing:0px;fill:#000000;fill-opacity:1;stroke:none;stroke-width:1px;stroke-linecap:butt;stroke-linejoin:miter;stroke-opacity:1"
       id="text8583" /><flowRoot
       xml:space="preserve"
       id="flowRoot8979"
       style="font-style:normal;font-weight:normal;font-size:10px;line-height:125%;font-family:sans-serif;letter-spacing:0px;word-spacing:0px;fill:#000000;fill-opacity:1;stroke:none;stroke-width:1px;stroke-linecap:butt;stroke-linejoin:miter;stroke-opacity:1"><flowRegion
         id="flowRegion8981"><rect
           id="rect8983"
           width="139.10506"
           height="10.320698"
           x="-45.770054"
           y="237.6214" /></flowRegion><flowPara
         id="flowPara8985" /></flowRoot><text
       xml:space="preserve"
       style="font-style:normal;font-weight:normal;font-size:8px;line-height:125%;font-family:sans-serif;letter-spacing:0px;word-spacing:0px;fill:#000000;fill-opacity:1;stroke:none;stroke-width:1px;stroke-linecap:butt;stroke-linejoin:miter;stroke-opacity:1"
       x="304.69263"
       y="-341.51114"
       id="text9047"
       sodipodi:linespacing="125%"
       transform="scale(1,-1)"><tspan
         sodipodi:role="line"
         id="tspan9049"
         x="304.69263"
         y="-341.51114" /></text>
<flowRoot
       xml:space="preserve"
       id="flowRoot9105"
       style="font-style:normal;font-weight:normal;font-size:10px;line-height:125%;font-family:sans-serif;letter-spacing:0px;word-spacing:0px;fill:#000000;fill-opacity:1;stroke:none;stroke-width:1px;stroke-linecap:butt;stroke-linejoin:miter;stroke-opacity:1"><flowRegion
         id="flowRegion9107"><rect
           id="rect9109"
           width="162.43881"
           height="113.52768"
           x="-58.334381"
           y="124.99117" /></flowRegion><flowPara
         id="flowPara9111" /></flowRoot><flowRoot
       xml:space="preserve"
       id="flowRoot9151"
       style="font-style:normal;font-weight:normal;font-size:10px;line-height:125%;font-family:sans-serif;letter-spacing:0px;word-spacing:0px;fill:#000000;fill-opacity:1;stroke:none;stroke-width:1px;stroke-linecap:butt;stroke-linejoin:miter;stroke-opacity:1"><flowRegion
         id="flowRegion9153"><rect
           id="rect9155"
           width="82.497276"
           height="12.691888"
           x="117.39996"
           y="231.42784" /></flowRegion><flowPara
         id="flowPara9157" /></flowRoot><text
       xml:space="preserve"
       style="font-style:normal;font-weight:normal;font-size:8px;line-height:125%;font-family:sans-serif;letter-spacing:0px;word-spacing:0px;fill:#000000;fill-opacity:1;stroke:none;stroke-width:1px;stroke-linecap:butt;stroke-linejoin:miter;stroke-opacity:1"
       x="184.62735"
       y="-623.5249"
       id="text9185"
       sodipodi:linespacing="125%"
       transform="scale(1,-1)"><tspan
         sodipodi:role="line"
         id="tspan9187"
         x="184.62735"
         y="-623.5249" /></text>
<text
       xml:space="preserve"
       style="font-style:normal;font-weight:normal;font-size:8px;line-height:125%;font-family:sans-serif;letter-spacing:0px;word-spacing:0px;fill:#000000;fill-opacity:1;stroke:none;stroke-width:1px;stroke-linecap:butt;stroke-linejoin:miter;stroke-opacity:1"
       x="312.26196"
       y="-389.40875"
       id="text8120"
       sodipodi:linespacing="125%"
       transform="scale(1,-1)"><tspan
         sodipodi:role="line"
         id="tspan8122"
         x="312.26196"
         y="-389.40875" /></text>
<g
       clip-path="url(#clipPath8222)"
       id="g8155"
       transform="translate(-7.3098029,-111.89621)" /><g
       style="fill:none;stroke:#000000;stroke-width:8;stroke-miterlimit:4;stroke-dasharray:none"
       id="g8756"
       transform="translate(-1042.3221,-177.83739)"><g
         style="fill:none;stroke:#000000;stroke-width:8;stroke-miterlimit:4;stroke-dasharray:none"
         id="g8758"
         clip-path="url(#clipPath8760)" /></g><g
       style="fill:none;stroke:#000000;stroke-width:8;stroke-miterlimit:4;stroke-dasharray:none"
       id="g8766"
       transform="translate(-1042.3221,-177.83739)"><g
         style="fill:none;stroke:#000000;stroke-width:8;stroke-miterlimit:4;stroke-dasharray:none"
         id="g8768"
         clip-path="url(#clipPath8770)" /></g><g
       style="fill:none;stroke:#000000;stroke-width:8;stroke-miterlimit:4;stroke-dasharray:none"
       id="g8786"
       transform="translate(-1042.3221,-177.83739)"><g
         style="fill:none;stroke:#000000;stroke-width:8;stroke-miterlimit:4;stroke-dasharray:none"
         id="g8788"
         clip-path="url(#clipPath8790)" /></g><g
       style="fill:none;stroke:#000000;stroke-width:8;stroke-miterlimit:4;stroke-dasharray:none"
       id="g8796"
       transform="translate(-1042.3221,-177.83739)"><g
         style="fill:none;stroke:#000000;stroke-width:8;stroke-miterlimit:4;stroke-dasharray:none"
         id="g8798"
         clip-path="url(#clipPath8800)" /></g><g
       id="g15808"><circle
         r="211.81694"
         transform="scale(1,-1)"
         cy="-579.58179"
         cx="357.86478"
         id="path8165"
         style="opacity:1;fill:#000000;fill-opacity:1;stroke:none;stroke-width:16;stroke-linecap:round;stroke-linejoin:round;stroke-miterlimit:10;stroke-dasharray:none;stroke-dashoffset:0;stroke-opacity:1" /><circle
         style="opacity:1;fill:#ff8100;fill-opacity:1;stroke:#000000;stroke-width:5.97939348;stroke-linecap:round;stroke-linejoin:round;stroke-miterlimit:4;stroke-dasharray:none;stroke-dashoffset:0;stroke-opacity:1"
         id="circle8167"
         cx="357.86478"
         cy="-579.58179"
         transform="scale(1,-1)"
         r="210.81955" /><circle
         style="opacity:1;fill:#f39b00;fill-opacity:1;stroke:none;stroke-width:16;stroke-linecap:round;stroke-linejoin:round;stroke-miterlimit:10;stroke-dasharray:none;stroke-dashoffset:0;stroke-opacity:1"
         id="circle8169"
         cx="357.86478"
         cy="-579.58179"
         transform="scale(1,-1)"
         r="198.18564" /><circle
         r="194.52849"
         transform="scale(1,-1)"
         cy="-579.58179"
         cx="357.86478"
         id="circle8171"
         style="opacity:1;fill:#ffa800;fill-opacity:1;stroke:none;stroke-width:16;stroke-linecap:round;stroke-linejoin:round;stroke-miterlimit:10;stroke-dasharray:none;stroke-dashoffset:0;stroke-opacity:1" /><circle
         r="189.54144"
         transform="scale(1,-1)"
         cy="-579.58179"
         cx="357.86478"
         id="circle8173"
         style="opacity:1;fill:#fed246;fill-opacity:1;stroke:none;stroke-width:16;stroke-linecap:round;stroke-linejoin:round;stroke-miterlimit:10;stroke-dasharray:none;stroke-dashoffset:0;stroke-opacity:1" /><circle
         style="opacity:1;fill:#fbff82;fill-opacity:1;stroke:none;stroke-width:16;stroke-linecap:round;stroke-linejoin:round;stroke-miterlimit:10;stroke-dasharray:none;stroke-dashoffset:0;stroke-opacity:1"
         id="circle8175"
         cx="357.86478"
         cy="-579.58179"
         transform="scale(1,-1)"
         r="115.73299" /><g
         id="g8244"
         transform="matrix(-3.7370439,0.02397352,-0.02397352,-3.7370439,2701.3354,2481.9405)"><g
           id="g8232"><path
             transform="matrix(-0.00510699,0.99998697,0.99998697,0.00510699,113.78661,-113.35057)"
             style="fill:none;fill-rule:evenodd;stroke:#000000;stroke-width:0.80000001px;stroke-linecap:butt;stroke-linejoin:miter;stroke-opacity:1"
             d="m 585.64613,474.01053 c 0,0 9.12286,3.86224 27.75883,2.577 9.87303,-0.6809 20.57827,-3.26921 28.31025,-6.25484 6.86264,-2.64995 11.34859,-5.77133 11.34859,-5.77133"
             id="path8232"
             inkscape:connector-curvature="0"
             sodipodi:nodetypes="cssc" /><path
             transform="matrix(-0.00510699,0.99998697,0.99998697,0.00510699,113.78661,-113.35057)"
             style="fill:none;fill-rule:evenodd;stroke:#000000;stroke-width:0.80000001px;stroke-linecap:butt;stroke-linejoin:miter;stroke-opacity:1"
             d="m 584.07842,472.82561 c 0,0 6.10195,2.72641 15.64438,1.94744 9.54242,-0.77897 17.33215,-3.18081 25.51136,-6.7511 8.17923,-3.5703 13.56712,-9.28277 13.56712,-9.28277"
             id="path8234"
             inkscape:connector-curvature="0" /><path
             transform="matrix(-0.00510699,0.99998697,0.99998697,0.00510699,113.78661,-113.35057)"
             style="fill:none;fill-rule:evenodd;stroke:#000000;stroke-width:0.80000001px;stroke-linecap:butt;stroke-linejoin:miter;stroke-opacity:1"
             d="m 624.39028,456.53209 c 0,0 -3.11588,6.62129 -15.12506,12.33375 -4.91954,2.3401 -9.36136,3.7587 -14.3068,4.46893 -3.48327,0.50024 -10.55543,-0.18458 -10.55543,-0.18458"
             id="path8236"
             inkscape:connector-curvature="0"
             sodipodi:nodetypes="csac" /><path
             transform="matrix(-0.00510699,0.99998697,0.99998697,0.00510699,113.78661,-113.35057)"
             style="fill:none;fill-rule:evenodd;stroke:#000000;stroke-width:0.80000001px;stroke-linecap:butt;stroke-linejoin:miter;stroke-opacity:1"
             d="m 609.52488,458.47953 c 0,0 -2.14218,5.77738 -5.77739,8.76344 -3.63521,2.98607 -6.26213,3.77715 -9.73717,4.77122 -3.17856,0.90926 -9.86699,1.00617 -9.86699,1.00617"
             id="path8238"
             inkscape:connector-curvature="0"
             sodipodi:nodetypes="csac" /><path
             transform="matrix(-0.00510699,0.99998697,0.99998697,0.00510699,113.78661,-113.35057)"
             style="fill:none;fill-rule:evenodd;stroke:#000000;stroke-width:0.80000001px;stroke-linecap:butt;stroke-linejoin:miter;stroke-opacity:1"
             d="m 595.37353,464.38674 c 0,0 0.58423,2.33692 -2.40184,5.3879 -2.98606,3.05097 -8.82836,3.11589 -8.82836,3.11589"
             id="path8240"
             inkscape:connector-curvature="0" /><path
             sodipodi:nodetypes="cssc"
             inkscape:connector-curvature="0"
             id="path8246"
             d="m 585.64613,474.01053 c 0,0 9.12286,3.86224 27.75883,2.577 9.87303,-0.6809 20.57827,-3.26921 28.31025,-6.25484 6.86264,-2.64995 11.34859,-5.77133 11.34859,-5.77133"
             style="fill:none;fill-rule:evenodd;stroke:#000000;stroke-width:0.80000001px;stroke-linecap:butt;stroke-linejoin:miter;stroke-opacity:1" /><path
             inkscape:connector-curvature="0"
             id="path8248"
             d="m 584.07842,472.82561 c 0,0 6.10195,2.72641 15.64438,1.94744 9.54242,-0.77897 17.33215,-3.18081 25.51136,-6.7511 8.17923,-3.5703 13.56712,-9.28277 13.56712,-9.28277"
             style="fill:none;fill-rule:evenodd;stroke:#000000;stroke-width:0.80000001px;stroke-linecap:butt;stroke-linejoin:miter;stroke-opacity:1" /><path
             sodipodi:nodetypes="csac"
             inkscape:connector-curvature="0"
             id="path8250"
             d="m 624.39028,456.53209 c 0,0 -3.11588,6.62129 -15.12506,12.33375 -4.91954,2.3401 -9.36136,3.7587 -14.3068,4.46893 -3.48327,0.50024 -10.55543,-0.18458 -10.55543,-0.18458"
             style="fill:none;fill-rule:evenodd;stroke:#000000;stroke-width:0.80000001px;stroke-linecap:butt;stroke-linejoin:miter;stroke-opacity:1" /><path
             sodipodi:nodetypes="csac"
             inkscape:connector-curvature="0"
             id="path8252"
             d="m 609.52488,458.47953 c 0,0 -2.14218,5.77738 -5.77739,8.76344 -3.63521,2.98607 -6.26213,3.77715 -9.73717,4.77122 -3.17856,0.90926 -9.86699,1.00617 -9.86699,1.00617"
             style="fill:none;fill-rule:evenodd;stroke:#000000;stroke-width:0.80000001px;stroke-linecap:butt;stroke-linejoin:miter;stroke-opacity:1" /><path
             inkscape:connector-curvature="0"
             id="path8254"
             d="m 595.37353,464.38674 c 0,0 0.58423,2.33692 -2.40184,5.3879 -2.98606,3.05097 -8.82836,3.11589 -8.82836,3.11589"
             style="fill:none;fill-rule:evenodd;stroke:#000000;stroke-width:0.80000001px;stroke-linecap:butt;stroke-linejoin:miter;stroke-opacity:1" /></g><path
           style="fill:none;fill-rule:evenodd;stroke:#000000;stroke-width:0.80000001px;stroke-linecap:butt;stroke-linejoin:miter;stroke-opacity:1"
           d="m 587.32414,475.09762 -3.47292,-2.04481"
           id="path8256"
           inkscape:connector-curvature="0"
           sodipodi:nodetypes="cc" /></g><g
         transform="matrix(3.7370439,-0.02397352,0.02397352,3.7370439,-1984.6197,-1322.872)"
         id="g8245"><g
           id="g8247"><path
             sodipodi:nodetypes="cssc"
             inkscape:connector-curvature="0"
             id="path8249"
             d="m 585.64613,474.01053 c 0,0 9.12286,3.86224 27.75883,2.577 9.87303,-0.6809 20.57827,-3.26921 28.31025,-6.25484 6.86264,-2.64995 11.34859,-5.77133 11.34859,-5.77133"
             style="fill:none;fill-rule:evenodd;stroke:#000000;stroke-width:0.80000001px;stroke-linecap:butt;stroke-linejoin:miter;stroke-opacity:1"
             transform="matrix(-0.00510699,0.99998697,0.99998697,0.00510699,113.78661,-113.35057)" /><path
             inkscape:connector-curvature="0"
             id="path8251"
             d="m 584.07842,472.82561 c 0,0 6.10195,2.72641 15.64438,1.94744 9.54242,-0.77897 17.33215,-3.18081 25.51136,-6.7511 8.17923,-3.5703 13.56712,-9.28277 13.56712,-9.28277"
             style="fill:none;fill-rule:evenodd;stroke:#000000;stroke-width:0.80000001px;stroke-linecap:butt;stroke-linejoin:miter;stroke-opacity:1"
             transform="matrix(-0.00510699,0.99998697,0.99998697,0.00510699,113.78661,-113.35057)" /><path
             sodipodi:nodetypes="csac"
             inkscape:connector-curvature="0"
             id="path8253"
             d="m 624.39028,456.53209 c 0,0 -3.11588,6.62129 -15.12506,12.33375 -4.91954,2.3401 -9.36136,3.7587 -14.3068,4.46893 -3.48327,0.50024 -10.55543,-0.18458 -10.55543,-0.18458"
             style="fill:none;fill-rule:evenodd;stroke:#000000;stroke-width:0.80000001px;stroke-linecap:butt;stroke-linejoin:miter;stroke-opacity:1"
             transform="matrix(-0.00510699,0.99998697,0.99998697,0.00510699,113.78661,-113.35057)" /><path
             sodipodi:nodetypes="csac"
             inkscape:connector-curvature="0"
             id="path8255"
             d="m 609.52488,458.47953 c 0,0 -2.14218,5.77738 -5.77739,8.76344 -3.63521,2.98607 -6.26213,3.77715 -9.73717,4.77122 -3.17856,0.90926 -9.86699,1.00617 -9.86699,1.00617"
             style="fill:none;fill-rule:evenodd;stroke:#000000;stroke-width:0.80000001px;stroke-linecap:butt;stroke-linejoin:miter;stroke-opacity:1"
             transform="matrix(-0.00510699,0.99998697,0.99998697,0.00510699,113.78661,-113.35057)" /><path
             inkscape:connector-curvature="0"
             id="path8257"
             d="m 595.37353,464.38674 c 0,0 0.58423,2.33692 -2.40184,5.3879 -2.98606,3.05097 -8.82836,3.11589 -8.82836,3.11589"
             style="fill:none;fill-rule:evenodd;stroke:#000000;stroke-width:0.80000001px;stroke-linecap:butt;stroke-linejoin:miter;stroke-opacity:1"
             transform="matrix(-0.00510699,0.99998697,0.99998697,0.00510699,113.78661,-113.35057)" /><path
             style="fill:none;fill-rule:evenodd;stroke:#000000;stroke-width:0.80000001px;stroke-linecap:butt;stroke-linejoin:miter;stroke-opacity:1"
             d="m 585.64613,474.01053 c 0,0 9.12286,3.86224 27.75883,2.577 9.87303,-0.6809 20.57827,-3.26921 28.31025,-6.25484 6.86264,-2.64995 11.34859,-5.77133 11.34859,-5.77133"
             id="path8259"
             inkscape:connector-curvature="0"
             sodipodi:nodetypes="cssc" /><path
             style="fill:none;fill-rule:evenodd;stroke:#000000;stroke-width:0.80000001px;stroke-linecap:butt;stroke-linejoin:miter;stroke-opacity:1"
             d="m 584.07842,472.82561 c 0,0 6.10195,2.72641 15.64438,1.94744 9.54242,-0.77897 17.33215,-3.18081 25.51136,-6.7511 8.17923,-3.5703 13.56712,-9.28277 13.56712,-9.28277"
             id="path8261"
             inkscape:connector-curvature="0" /><path
             style="fill:none;fill-rule:evenodd;stroke:#000000;stroke-width:0.80000001px;stroke-linecap:butt;stroke-linejoin:miter;stroke-opacity:1"
             d="m 624.39028,456.53209 c 0,0 -3.11588,6.62129 -15.12506,12.33375 -4.91954,2.3401 -9.36136,3.7587 -14.3068,4.46893 -3.48327,0.50024 -10.55543,-0.18458 -10.55543,-0.18458"
             id="path8263"
             inkscape:connector-curvature="0"
             sodipodi:nodetypes="csac" /><path
             style="fill:none;fill-rule:evenodd;stroke:#000000;stroke-width:0.80000001px;stroke-linecap:butt;stroke-linejoin:miter;stroke-opacity:1"
             d="m 609.52488,458.47953 c 0,0 -2.14218,5.77738 -5.77739,8.76344 -3.63521,2.98607 -6.26213,3.77715 -9.73717,4.77122 -3.17856,0.90926 -9.86699,1.00617 -9.86699,1.00617"
             id="path8265"
             inkscape:connector-curvature="0"
             sodipodi:nodetypes="csac" /><path
             style="fill:none;fill-rule:evenodd;stroke:#000000;stroke-width:0.80000001px;stroke-linecap:butt;stroke-linejoin:miter;stroke-opacity:1"
             d="m 595.37353,464.38674 c 0,0 0.58423,2.33692 -2.40184,5.3879 -2.98606,3.05097 -8.82836,3.11589 -8.82836,3.11589"
             id="path8267"
             inkscape:connector-curvature="0" /></g><path
           sodipodi:nodetypes="cc"
           inkscape:connector-curvature="0"
           id="path8269"
           d="m 587.32414,475.09762 -3.47292,-2.04481"
           style="fill:none;fill-rule:evenodd;stroke:#000000;stroke-width:0.80000001px;stroke-linecap:butt;stroke-linejoin:miter;stroke-opacity:1" /></g><g
         transform="matrix(0.46182647,0,0,0.46182647,631.28546,475.68851)"
         id="g10256"><path
           style="fill:#000000;fill-opacity:1;fill-rule:evenodd;stroke:none;stroke-width:0.80000001px;stroke-linecap:butt;stroke-linejoin:miter;stroke-opacity:1"
           d="m -851.63934,276.28592 c 0,0 0.85233,-0.23973 1.27569,-0.36905 2.03711,-0.62227 4.05858,-1.29481 6.08295,-1.95737 7.00914,-2.29405 14.00459,-4.63 20.99283,-6.98695 12.18653,-4.11019 36.50997,-12.47669 36.50997,-12.47669 l -25.35107,0 z"
           id="path10240"
           inkscape:connector-curvature="0"
           sodipodi:nodetypes="caaaccc" /><path
           style="fill:#000000;fill-rule:evenodd;stroke:none;stroke-width:0.80000001px;stroke-linecap:butt;stroke-linejoin:miter;stroke-opacity:1"
           d="m -896.69226,519.09788 c 0,0 48.05783,-96.71783 73.32871,-144.43265 42.37674,-80.01297 66.84116,-120.07951 66.84116,-120.07951 l 82.55513,0 c 0,0 -33.99846,43.05194 -51.32899,64.31067 -19.59709,24.03902 -39.5617,47.77695 -59.53426,71.50493 -18.74688,22.27185 -37.49551,44.54552 -56.59891,66.51233 -18.1972,20.92478 -55.26284,62.18423 -55.26284,62.18423 z"
           id="path10244"
           inkscape:connector-curvature="0"
           sodipodi:nodetypes="csccaaac" /><path
           style="fill:#000000;fill-opacity:1;fill-rule:evenodd;stroke:none;stroke-width:0.80000001px;stroke-linecap:butt;stroke-linejoin:miter;stroke-opacity:1"
           d="m -912.37581,534.34795 c 0,0 16.45491,-32.73657 30.22755,-60.43728 4.16126,-8.36949 10.94259,-22.10685 16.49568,-33.11929 8.65254,-17.15905 17.32004,-34.31187 26.21184,-51.34815 11.6201,-22.26358 23.38483,-44.45424 35.46323,-66.47254 11.96785,-21.81677 36.66359,-65.02761 36.66359,-65.02761 0,0 -43.83025,15.27204 -65.86517,22.55193 -26.25489,8.67409 -79.04096,25.17057 -79.04096,25.17057 z"
           id="path10246"
           inkscape:connector-curvature="0"
           sodipodi:nodetypes="csaaacacc" /><path
           style="fill:#000000;fill-opacity:1;fill-rule:evenodd;stroke:none;stroke-width:0.80000001px;stroke-linecap:butt;stroke-linejoin:miter;stroke-opacity:1"
           d="m -802.54813,243.98237 137.35364,0 c 0,0 51.05389,-29.0549 75.62928,-45.10625 38.47623,-25.13065 76.113,-51.65532 112.25693,-80.03817 25.72003,-20.197238 50.62712,-41.507768 74.2727,-64.09836 20.8156,-19.886879 40.28438,-41.171754 59.35034,-62.741784 20.58143,-23.284536 59.35033,-71.898696 59.35033,-71.898696 0,0 -69.92769,27.055554 -104.11745,42.393096 -46.54416,20.879731 -92.70763,42.810757 -137.35363,67.489816 -37.09474,20.50493 -73.3623,42.651649 -108.18718,66.81152 -28.18492,19.553378 -54.95874,41.118768 -81.30997,63.080928 -10.99226,9.16138 -21.61004,18.77659 -31.99521,28.62081 -18.94294,17.95625 -55.24978,55.48709 -55.24978,55.48709 z"
           id="path10248"
           inkscape:connector-curvature="0"
           sodipodi:nodetypes="ccaaaacaaaaac" /><path
           style="fill:#000000;fill-opacity:1;fill-rule:evenodd;stroke:none;stroke-width:0.80000001px;stroke-linecap:butt;stroke-linejoin:miter;stroke-opacity:1"
           d="m -912.39994,295.23378 0,-390.173438 639.8173,0 c 0,0 -65.41439,25.392547 -97.6033,39.329104 -38.36708,16.611466 -76.51774,33.818969 -113.7906,52.758544 -31.89929,16.209086 -63.39452,33.315994 -93.88623,52.039112 -31.34447,19.246749 -61.94971,39.792774 -91.36821,61.871388 -24.58659,18.45226 -48.2102,38.22597 -70.98422,58.87374 -17.21107,15.60419 -33.33184,32.37953 -49.52109,49.04146 -8.19764,8.43699 -24.10107,25.77976 -24.10107,25.77976 0,0 -30.52299,17.50054 -46.16372,25.53992 -17.20424,8.84303 -52.39886,24.94041 -52.39886,24.94041 z"
           id="path10252"
           inkscape:connector-curvature="0"
           sodipodi:nodetypes="cccaaaaaacac" /><path
           style="fill:#000000;fill-opacity:1;fill-rule:evenodd;stroke:none;stroke-width:0.80000001px;stroke-linecap:butt;stroke-linejoin:miter;stroke-opacity:1"
           d="m -912.26147,548.02567 641.15321,0 0,-631.318008 c 0,0 -33.5333,43.541265 -51.55001,64.267936 -25.97087,29.877247 -52.4903,59.432531 -81.39474,86.48192 -36.62023,34.269982 -75.85392,65.787072 -116.15709,95.638832 -27.91657,20.67725 -57.37891,39.21435 -86.82106,57.65461 -18.57566,11.63434 -56.63718,33.40576 -56.63718,33.40576 0,0 -51.16655,64.74806 -77.32502,96.65626 -21.0604,25.68956 -42.48399,51.08233 -64.09836,76.30758 -18.21936,21.26307 -36.70079,42.30166 -55.2806,63.2505 -17.15607,19.34357 -51.88915,57.65461 -51.88915,57.65461 z"
           id="path10254"
           inkscape:connector-curvature="0"
           sodipodi:nodetypes="cccaaaacaaac" /></g></g></g></svg>